<svg width="1840" height="1380" viewBox="0 0 1840 1380" fill="none" xmlns="http://www.w3.org/2000/svg">
<path d="M708.547 1107.44C733.695 1076.53 737.607 1044.27 724.946 995.923C707.931 930.886 656.864 925.894 637.189 906.412C617.494 886.93 617.726 856.868 601.115 836.923C598.262 833.493 595.545 830.448 593.021 827.75C589.167 823.645 582.557 827.924 584.6 833.165C587.722 841.201 590.227 850.374 590.227 859.103C590.227 882.17 597.029 906.431 597.029 906.431C597.029 906.431 569.511 891.612 565.734 872.901C561.957 854.189 568.046 826.189 544.575 810.021C527 797.919 515.862 778.919 509.406 764.312C507.287 759.494 500.137 760.727 499.675 765.969C498.442 780.21 497.343 798.42 498.095 811.968C499.81 843.012 515.284 840.045 516.768 860.356C518.252 880.667 516.286 929.961 527.848 951.621C542.821 979.678 578.53 995.519 578.53 995.519C578.53 995.519 545.577 995.923 518.83 956.669C505.225 936.705 489.404 927.918 479.556 924.16C475.567 922.638 471.598 926.453 472.927 930.5C481.387 956.515 506.747 1031.84 527.174 1065.84C552.071 1107.29 581.998 1125.54 630.849 1133.03C661.2 1137.72 690.664 1129.41 708.547 1107.44Z" fill="#E72A8B"/>
<path d="M673.03 1110.47C660.331 1116 634.374 1119.64 613.061 1114.73C591.747 1109.81 560.703 1080.23 560.703 1080.23C560.703 1080.23 581.457 1078.9 591.15 1084.91C600.843 1090.93 619.535 1090.06 619.535 1090.06C619.535 1090.06 606.644 1072.08 587.296 1062.56C567.948 1053.04 555.057 1017.2 555.057 1017.2C555.057 1017.2 576.408 1041.63 591.902 1045.83C607.376 1050.03 634.817 1042.13 648.268 1056.55C675.092 1085.3 707.544 1080.25 707.544 1080.25C707.544 1080.25 694.208 1101.25 673.03 1110.47Z" fill="white"/>
<path d="M673.571 998.525C673.571 998.525 651.776 1001.86 642.295 1005.19C632.814 1008.53 625.375 1013.9 625.626 1018.01C625.876 1022.11 639.212 1016.99 641.775 1016.72C644.338 1016.47 638.441 1022.61 635.878 1033.12C633.315 1043.62 629.731 1056.7 630.501 1061.83C631.272 1066.95 636.148 1067.48 636.148 1067.48C636.148 1067.48 637.94 1075.68 642.565 1076.96C647.17 1078.25 646.9 1077.36 646.9 1077.36C646.9 1077.36 647.748 1082.22 652.605 1082.22C657.461 1082.22 656.883 1078.79 656.883 1078.79C656.883 1078.79 657.172 1073.93 660.313 1065.37C663.878 1055.66 666.922 1048.24 666.922 1048.24C666.922 1048.24 670.006 1061.83 674.361 1064.64C678.716 1067.46 680.007 1066.68 680.007 1066.68C680.007 1066.68 681.799 1063.1 679.236 1055.66C676.673 1048.22 677.945 1044.39 679.487 1038.49C681.028 1032.6 692.051 1016.45 692.051 1016.45L673.571 998.525Z" fill="white" stroke="#031F43" stroke-width="3.85409" stroke-linecap="round" stroke-linejoin="round"/>
<path d="M805.113 849.583C805.113 849.583 794.341 894.811 785.303 913.754C776.265 932.716 749.98 970.178 740.942 981.374C731.904 992.57 697.429 1031.77 697.429 1031.77L668.562 999.893C668.562 999.893 693.113 961.12 698.721 937.437C704.328 913.754 737.917 831.469 746.954 822.431C755.992 813.393 808.119 850.007 808.119 850.007L805.113 849.583Z" fill="#347CE1" stroke="#231F20" stroke-width="3.85409" stroke-miterlimit="10" stroke-linecap="round" stroke-linejoin="round"/>
<path d="M636.149 1067.5C636.149 1067.5 641.737 1046.26 646.882 1037.7" stroke="#031F43" stroke-width="3.85409" stroke-linecap="round" stroke-linejoin="round"/>
<path d="M646.421 1074.91C646.421 1074.91 652.009 1053.68 657.154 1045.12" stroke="#031F43" stroke-width="3.85409" stroke-linecap="round" stroke-linejoin="round"/>
<path d="M879.149 862.399L831.069 804.761C831.069 804.761 833.71 778.688 810.026 775.585C786.343 772.483 763.392 758.126 752.388 772.232C741.385 786.338 735.893 808.596 737.319 811.448C738.745 814.319 742.348 829.62 745.933 832.491C749.517 835.362 753.352 838.234 753.352 838.234C753.352 838.234 776.785 857.369 787.557 859.759C798.329 862.148 808.118 870.994 816.501 872.67C824.864 874.366 879.149 862.399 879.149 862.399Z" fill="white"/>
<path d="M936.246 300.24L950.121 325.562L926.534 343.946L900.846 311.34L936.246 300.24Z" fill="white" stroke="#031F43" stroke-width="3.85409" stroke-linecap="round" stroke-linejoin="round"/>
<path d="M818.215 400.369L846.697 405.206L846.465 435.133L805.419 431.741L818.215 400.369Z" fill="white" stroke="#031F43" stroke-width="3.85409" stroke-linecap="round" stroke-linejoin="round"/>
<path d="M786.343 860.027L787.981 873.44C787.981 873.44 809.872 879.086 820.451 881.437C831.031 883.788 850.802 873.44 850.802 873.44C850.802 873.44 838.103 874.037 827.234 870.318C819.334 867.62 807.058 857.002 807.058 857.002" fill="#808080"/>
<path d="M786.343 860.027L787.981 873.44C787.981 873.44 809.872 879.086 820.451 881.437C831.031 883.788 850.802 873.44 850.802 873.44C850.802 873.44 838.103 874.037 827.234 870.318C819.334 867.62 807.058 857.002 807.058 857.002" stroke="#031F43" stroke-width="3.85409" stroke-miterlimit="10"/>
<path d="M734.081 809.463C734.081 809.463 744.294 833.763 768.382 849.892C792.451 866.022 802.414 860.067 809.486 855.577C821.299 848.081 823.342 835.131 823.342 835.131" stroke="#031F43" stroke-width="3.85409" stroke-linecap="round" stroke-linejoin="round"/>
<path d="M825.19 1211.12C806.228 1197.17 799.136 1142.98 844.942 1119.06C868.105 1106.98 886.47 1082.85 896.529 1065.05C899.767 1059.31 908.515 1061.31 908.959 1067.9C909.517 1076.07 917.881 1051.73 914.952 1059.36C907.552 1078.62 914.566 1086.75 914.566 1086.75C914.566 1086.75 902.06 1089.89 932.334 1071.41C962.608 1052.93 1043.43 1029.17 1056.71 995.713C1069.98 962.26 1069.4 922.698 1101.05 900.556C1120.49 886.951 1134.4 872.556 1143.48 861.533C1147.87 856.195 1156.49 860.204 1155.31 867.025C1153.06 880.129 1147.84 896.162 1136 908.784C1111.8 934.588 1115.46 955.477 1113.48 971.394C1111.47 987.312 1105.29 1002.54 1105.29 1002.54C1105.29 1002.54 1141.55 967.656 1148.07 936.592C1154.58 905.528 1172.17 876.102 1198.69 849.894C1212.43 836.327 1221.58 816.826 1227.23 801.178C1229.7 794.337 1239.74 795.725 1240.31 802.99C1241.26 815.111 1240.49 829.949 1234.9 844.749C1221.81 879.358 1203.6 925.646 1203.6 925.646C1203.6 925.646 1233.74 913.178 1242.43 887.703C1243.92 883.367 1245.75 879.204 1247.75 875.312C1251.22 868.548 1261.51 871.959 1260.39 879.474C1259.16 887.703 1258.52 897.126 1259.08 907.532C1261.16 946.67 1231.84 984.132 1216.92 1008.3C1202 1032.46 1222.24 1054.82 1211.43 1090.22C1201.87 1121.51 1173.72 1208.48 1124.79 1222.26C1021.79 1251.22 1034.95 1205.67 950.718 1221.89C870.264 1237.38 839.758 1221.83 825.19 1211.12Z" fill="#E72A8B"/>
<path d="M887.704 1006.77C887.704 1006.77 867.933 1019.09 863.385 1022.59C858.837 1026.1 854.482 1030.03 856.351 1033.77C858.221 1037.51 862.152 1036.05 869.185 1032.73C876.219 1029.42 881.191 1027.35 881.808 1027.97C882.424 1028.59 881.403 1047.84 882.424 1056.53C883.465 1065.22 883.658 1079.69 886.76 1080.95C889.863 1082.2 891.096 1081.35 891.925 1076.61C892.753 1071.87 893.794 1051.15 895.027 1051.58C896.26 1052 897.918 1084.68 899.363 1088.62C900.808 1092.55 904.123 1093.37 906.185 1092.76C908.247 1092.14 909.904 1091.1 909.904 1091.1C909.904 1091.1 912.602 1094.42 915.492 1093.99C918.383 1093.57 920.04 1090.68 920.04 1090.68C920.04 1090.68 924.8 1090.68 926.457 1089.85C928.115 1089.02 930.177 1072.06 930.177 1072.06C930.177 1072.06 929.348 1059.44 928.519 1052.83C927.691 1046.2 931.545 1069.29 936.17 1069.79C939.792 1070.19 940.737 1051.77 934.744 1039.57C928.751 1027.37 923.181 1013.42 923.181 1013.42L887.704 1006.77Z" fill="white" stroke="#031F43" stroke-width="3.85409" stroke-linecap="round" stroke-linejoin="round"/>
<path d="M870.207 594.5C870.207 594.5 891.405 551.623 897.186 534.742C902.967 517.881 918.383 484.62 918.383 484.62C918.383 484.62 866.873 471.593 856.275 469.666C845.676 467.739 837.428 465.831 837.428 465.831L839.837 404.146C839.837 404.146 954.034 412.818 961.742 416.672C969.45 420.526 996.91 471.612 996.91 487.992C996.91 504.372 940.525 624.369 940.525 624.369L870.207 594.5Z" fill="#347CE1" stroke="#231F20" stroke-width="3.85409" stroke-miterlimit="10" stroke-linecap="round" stroke-linejoin="round"/>
<path d="M817.309 435.558C817.309 435.558 808.753 440.453 799.233 439.547C789.694 438.641 782.796 437.215 782.796 437.215L784.684 410.796L788.288 409.254C788.288 409.254 787.864 398.983 787.941 389.348C788.018 379.712 791.988 356.954 796.709 346.471C801.43 336.007 804.533 329.301 807.712 328.838C810.892 328.376 817.309 331.459 817.309 331.459C817.309 331.459 814.65 350.421 814.553 360.326C814.457 370.251 825.229 390.6 826.906 393.067C828.582 395.533 832.205 400.544 829.392 402.74C826.559 404.937 821.857 410.873 819.332 410.564C816.827 410.256 816.23 412.723 815.074 417.405C813.898 422.088 817.309 435.558 817.309 435.558Z" fill="#808080" stroke="#031F43" stroke-width="3.85409" stroke-miterlimit="10"/>
<path d="M815.902 397.5C815.902 397.5 822.762 392.894 824.092 390.717" stroke="#031F43" stroke-width="3.85409" stroke-linecap="round" stroke-linejoin="round"/>
<path d="M812.321 389.828C812.321 389.828 819.181 385.222 820.511 383.045" stroke="#031F43" stroke-width="3.85409" stroke-linecap="round" stroke-linejoin="round"/>
<path d="M809.755 382.408C809.755 382.408 816.616 377.803 817.945 375.625" stroke="#031F43" stroke-width="3.85409" stroke-linecap="round" stroke-linejoin="round"/>
<path d="M973.345 648.958C973.345 648.958 1038.4 514.99 1041.77 496.683C1045.15 478.376 1031.66 451.859 1020.09 431.626C1008.53 411.392 968.527 319.838 966.6 313.575C964.673 307.312 962.746 302.494 962.746 302.494C962.746 302.494 944.921 317.911 936.731 321.765C928.541 325.619 910.716 348.261 910.716 348.261C910.716 348.261 939.621 405.129 950.702 425.363C961.782 445.597 972.863 473.076 972.863 475.967C972.863 478.857 948.775 529.462 942.512 541.987C936.249 554.513 916.978 593.555 916.497 602.227C915.996 610.879 973.345 648.958 973.345 648.958Z" fill="#347CE1" stroke="#231F20" stroke-width="3.85409" stroke-miterlimit="10" stroke-linecap="round" stroke-linejoin="round"/>
<path d="M909.058 324.001C909.058 324.001 899.365 322.228 892.678 315.387C885.972 308.546 881.616 302.996 881.616 302.996L900.097 284.015L903.835 285.152C903.835 285.152 910.137 277.039 916.4 269.716C922.663 262.394 940.391 247.575 950.74 242.603C961.088 237.631 967.794 234.509 970.511 236.224C973.228 237.92 976.157 244.414 976.157 244.414C976.157 244.414 961.897 257.191 955.442 264.706C948.967 272.221 944.091 294.729 943.764 297.697C943.455 300.665 942.993 306.831 939.428 306.677C935.863 306.523 928.424 308.026 926.709 306.176C924.994 304.307 922.932 305.829 919.04 308.662C915.128 311.495 909.058 324.001 909.058 324.001Z" fill="#808080" stroke="#031F43" stroke-width="3.85409" stroke-miterlimit="10"/>
<path d="M932.509 293.998C932.509 293.998 940.737 294.904 943.127 294.094" stroke="#031F43" stroke-width="3.85409" stroke-linecap="round" stroke-linejoin="round"/>
<path d="M934.724 285.826C934.724 285.826 942.953 286.732 945.343 285.923" stroke="#031F43" stroke-width="3.85409" stroke-linecap="round" stroke-linejoin="round"/>
<path d="M937.538 278.504C937.538 278.504 945.766 279.41 948.156 278.6" stroke="#031F43" stroke-width="3.85409" stroke-linecap="round" stroke-linejoin="round"/>
<path d="M932.895 1193.43C932.895 1193.43 990.051 1169.9 1003.46 1127.6C1009.48 1108.66 1043.16 1062.16 1052.02 1055.84C1060.89 1049.51 1071.57 1041.23 1071.57 1041.23C1071.57 1041.23 1052.18 1064.62 1048.32 1100.08C1044.47 1135.52 1038.09 1145.87 1038.09 1145.87C1038.09 1145.87 1050.37 1141.03 1063.14 1125.34C1075.92 1109.66 1095.29 1094.3 1095.29 1094.3C1095.29 1094.3 1079.39 1137.21 1075.48 1154.64C1071.57 1172.06 1054.82 1187.16 1054.82 1187.16C1054.82 1187.16 1066.61 1187.9 1076.71 1180.8C1080.28 1178.3 1088.45 1168.82 1088.45 1168.82C1088.45 1168.82 1080.81 1193.27 1062.74 1199.48C1044.64 1205.68 1019.92 1198.51 997.624 1193.45C975.309 1188.38 932.895 1193.43 932.895 1193.43Z" fill="white"/>
<path d="M777.615 751.94C777.615 751.94 782.259 735.059 794.92 719.007C807.581 702.955 817.293 694.11 821.513 674.261C825.734 654.412 842.615 610.938 843.462 599.954C844.31 588.97 851.903 569.141 851.903 569.141C851.903 569.141 862.463 583.497 897.073 593.633C931.683 603.77 966.736 629.091 970.956 636.279C975.176 643.467 980.244 649.364 980.244 649.364C980.244 649.364 957.023 708.466 953.651 729.991C950.279 751.516 949.007 767.993 957.023 791.194C965.04 814.415 970.108 890.822 966.736 917.416C963.363 944.009 956.599 967.23 953.227 976.518C949.855 985.806 945.21 1020.84 945.21 1020.84C945.21 1020.84 928.753 1029.28 909.753 1023.79C890.752 1018.3 882.736 1006.91 882.736 1006.91C882.736 1006.91 897.516 964.262 899.193 945.705C900.888 927.128 901.717 897.162 896.668 881.958C891.6 866.754 886.108 851.568 886.108 851.568C886.108 851.568 878.091 857.908 863.735 851.568C849.378 845.228 825.078 780.634 816.214 775.99C807.33 771.346 777.615 751.94 777.615 751.94Z" fill="#347CE1" stroke="#231F20" stroke-width="3.85409" stroke-miterlimit="10" stroke-linecap="round" stroke-linejoin="round"/>
<path d="M831.535 800.02C832.248 800.252 858.976 813.375 858.976 814.319C858.976 815.263 880.944 862.148 880.944 862.148C880.944 862.148 855.758 851.318 844.234 842.145C832.711 832.973 823.519 807.555 825.176 803.547C826.814 799.558 831.535 800.02 831.535 800.02Z" fill="#808080" stroke="#031F43" stroke-width="3.85409" stroke-miterlimit="10"/>
<path d="M551.377 690.913C551.377 690.913 540.277 727.006 572.555 748.82C600.96 768.014 610.73 779.48 620.134 792.641C627.746 803.298 637.786 826.037 637.786 826.037L680.721 758.725C680.721 758.725 677.29 736.14 656.69 717.024C636.09 697.908 617.456 644.336 617.456 644.336L551.377 690.913Z" fill="#A7CCE9"/>
<path d="M571.419 702.09L607.879 675.863" stroke="#031F43" stroke-width="3.85409" stroke-linecap="round" stroke-linejoin="round"/>
<path d="M578.646 732.788L627.882 696.193" stroke="#031F43" stroke-width="3.85409" stroke-linecap="round" stroke-linejoin="round"/>
<path d="M613.793 729.086L636.744 711.223" stroke="#031F43" stroke-width="3.85409" stroke-linecap="round" stroke-linejoin="round"/>
<path d="M726.103 1142.57C726.103 1142.57 753.891 1149.51 771.754 1130.66C789.618 1111.82 818.389 1069.13 818.389 1069.13L892.811 1139.59C892.811 1139.59 838.122 1184.56 819.372 1198.13C785.398 1222.72 759.826 1219.96 759.826 1219.96L726.103 1142.57Z" fill="#A7CCE9"/>
<path d="M818.733 1101.74L854.922 1138.28" stroke="#031F43" stroke-width="3.85409" stroke-linecap="round" stroke-linejoin="round"/>
<path d="M799.193 1120.91L835.382 1157.45" stroke="#031F43" stroke-width="3.85409" stroke-linecap="round" stroke-linejoin="round"/>
<path d="M787.975 1133.94L804.259 1151.67" stroke="#031F43" stroke-width="3.85409" stroke-linecap="round" stroke-linejoin="round"/>
<path d="M1121.44 584.924L1125.08 495.625L1225.19 594.309L1212.07 715.559L1107.68 777.436L1028.92 616.181L1121.44 584.924Z" stroke="#031F43" stroke-width="3.85409" stroke-linecap="round" stroke-linejoin="round"/>
<path d="M1121.44 584.924L1212.07 715.558" stroke="#031F43" stroke-width="3.85409" stroke-linecap="round" stroke-linejoin="round"/>
<path d="M1135.16 527.172L1132.54 581.091L1199.6 675.304L1205.28 598.164L1135.16 527.172Z" fill="#45D62F" stroke="#031F43" stroke-width="3.85409" stroke-linecap="round" stroke-linejoin="round"/>
<path d="M1113.33 611.133L1169.11 700.49" stroke="#031F43" stroke-width="3.85409" stroke-linecap="round" stroke-linejoin="round"/>
<path d="M1101.15 630.846L1139.34 698.389" stroke="#031F43" stroke-width="3.85409" stroke-linecap="round" stroke-linejoin="round"/>
<path d="M1082.8 639.537L1120.98 707.08" stroke="#031F43" stroke-width="3.85409" stroke-linecap="round" stroke-linejoin="round"/>
<path d="M769.769 822.045C769.769 822.045 772.814 826.92 773.411 830.678C774.009 834.436 773.218 835.823 773.218 835.823L780.927 834.05" stroke="#031F43" stroke-width="3.85409" stroke-linecap="round" stroke-linejoin="round"/>
<path d="M795.496 850.242C796.344 848.548 795.117 846.217 792.757 845.035C790.397 843.854 787.796 844.27 786.948 845.964C786.1 847.658 787.326 849.989 789.686 851.17C792.047 852.352 794.648 851.936 795.496 850.242Z" stroke="#031F43" stroke-width="3.85409" stroke-linecap="round" stroke-linejoin="round"/>
<path d="M739.456 822.24L785.821 793.219C785.821 793.219 791.39 801.216 790.773 806.939C790.157 812.663 778.093 818.848 775.473 818.386C772.852 817.923 763.872 810.813 762.176 811.892C760.48 812.971 765.413 825.805 764.18 827.501C762.947 829.197 751.211 835.44 748.109 835.132C743.33 834.631 739.456 822.24 739.456 822.24Z" stroke="#031F43" stroke-width="3.85409" stroke-linecap="round" stroke-linejoin="round"/>
<path d="M826.346 811.718C826.346 811.718 822.087 808.866 822.608 804.954C823.147 801.042 824.111 790.405 818.06 787.977C812.279 785.664 809.157 790.232 807.191 793.604C805.226 796.976 798.327 800.445 790.696 796.013C785.396 792.949 763.929 776.839 763.929 776.839C763.929 776.839 760.48 793.777 749.881 796.938C741.016 799.578 744.37 814.898 739.186 818.154C724.656 827.269 705.25 807.247 705.25 807.247C705.25 807.247 722.17 802.661 725.504 789.981C729.936 773.081 736.738 747.856 762.869 741.631C789 735.407 802.701 741.285 809.985 750.881C817.27 760.478 819.235 762.617 825.286 767.955C831.337 773.293 835.962 779.151 838.448 787.167C838.448 787.167 840.047 798.19 836.309 803.702C832.57 809.232 826.346 811.718 826.346 811.718Z" fill="#031F43"/>
<path d="M817.194 864.113C817.194 864.113 826.521 870.202 832.611 871.281C838.7 872.36 846.235 866.271 846.235 866.271L832.611 849.062L817.194 864.113Z" fill="#45D62F" stroke="#031F43" stroke-width="3.85409" stroke-linecap="round" stroke-linejoin="round"/>
<path d="M841.551 865.192C841.551 865.192 854.019 863.362 863.211 861.03C881.652 856.347 897.763 842.472 906.646 835.728C919.769 825.726 940.389 811.042 960.064 793.236C966.847 787.108 973.804 769.861 973.804 769.861L1006.78 749.801L1015.37 780.614C1015.37 780.614 1003.9 809.289 977.388 829.002C950.872 848.716 903.929 872.727 872.017 874.866C840.125 877.024 832.59 871.282 832.59 871.282L841.551 865.192Z" fill="#45D62F" stroke="#031F43" stroke-width="3.85409" stroke-linecap="round" stroke-linejoin="round"/>
<path d="M909.923 1091.08C909.923 1091.08 909.73 1061.37 908.035 1053.02" stroke="#031F43" stroke-width="3.85409" stroke-linecap="round" stroke-linejoin="round"/>
<path d="M920.619 1088.73C920.619 1088.73 920.426 1059.01 918.73 1050.67" stroke="#031F43" stroke-width="3.85409" stroke-linecap="round" stroke-linejoin="round"/>
</svg>
