<?xml version="1.0" encoding="UTF-8" standalone="no"?>
<!DOCTYPE svg PUBLIC "-//W3C//DTD SVG 1.1//EN" "http://www.w3.org/Graphics/SVG/1.1/DTD/svg11.dtd">
<svg width="100%" height="100%" viewBox="0 0 2752 2586" version="1.1" xmlns="http://www.w3.org/2000/svg" xmlns:xlink="http://www.w3.org/1999/xlink" xml:space="preserve" xmlns:serif="http://www.serif.com/" style="fill-rule:evenodd;clip-rule:evenodd;stroke-linejoin:round;stroke-miterlimit:2;">
    <g transform="matrix(1,0,0,1,-124.067,-207.351)">
        <path d="M1722.4,1629.3C1722.4,1591.5 1691.7,1560.8 1653.9,1560.8C1616.1,1560.8 1585.4,1591.5 1585.4,1629.3C1585.4,1667.1 1616.1,1697.8 1653.9,1697.8C1691.6,1697.8 1722.4,1667.1 1722.4,1629.3Z" style="fill:rgb(0,140,255);fill-rule:nonzero;"/>
        <path d="M1649.2,1403C1655.2,1363.9 1639.2,1324.9 1607.4,1301.3L1606.2,1300.4L1605.8,1301.8C1599.4,1325.4 1586.7,1342.7 1567.9,1353.1L1566.5,1353.9L1567.7,1354.8C1579.6,1363.6 1585.6,1378.2 1583.3,1392.9C1581.7,1403.4 1576.1,1412.7 1567.4,1419C1558.8,1425.3 1548.2,1427.9 1537.7,1426.3C1515.9,1422.9 1501,1402.5 1504.3,1380.8C1505.2,1375 1507.3,1369.7 1510.4,1364.9L1511.3,1363.5L1509.6,1363.3C1488.8,1361.3 1466.9,1354.1 1447.7,1343.2L1446.7,1342.6L1446.2,1343.6C1442.4,1352.1 1439.8,1361.2 1438.3,1370.6C1434,1398.7 1440.9,1426.8 1457.7,1449.7C1474.5,1472.6 1499.3,1487.6 1527.4,1492C1532.9,1492.8 1538.3,1493.2 1543.6,1493.2C1595.7,1493.3 1641.1,1455.6 1649.2,1403Z" style="fill:rgb(0,140,255);fill-rule:nonzero;"/>
        <path d="M1315.2,1638.9L1313.9,1638.2L1313.7,1639.7C1309.7,1674 1297,1701.3 1274.8,1723.3L1274,1724.1L1274.9,1724.8C1288.8,1735 1297.1,1751.4 1297.1,1768.6C1297.1,1798.5 1272.7,1822.9 1242.8,1822.9C1215.6,1822.9 1192.5,1802.6 1189,1775.6L1188.8,1774.3L1182.9,1776.8C1152.2,1789.8 1123.2,1802.2 1105,1822.5L1104.6,1823L1104.8,1823.6C1115.7,1850.9 1134.2,1874.1 1158.5,1890.9C1183.3,1908 1212.5,1917.1 1242.8,1917.1C1279.1,1917.1 1314,1903.9 1341.2,1879.8L1341.7,1879.4L1341.5,1878.8C1327.7,1825 1345.7,1769.7 1387.4,1737.8L1387.9,1737.4L1387.8,1736.8C1378.8,1695.3 1352.4,1659.7 1315.2,1638.9Z" style="fill:rgb(0,140,255);fill-rule:nonzero;"/>
        <path d="M1906.8,1560.9C1884.8,1569.7 1857.8,1564.2 1836.4,1546.6C1811.1,1525.8 1799.5,1494.3 1805.4,1462.3C1811.1,1431.5 1825.1,1415.2 1838.6,1399.4C1851.9,1383.9 1864.5,1369.3 1866.9,1342.5L1867,1341.6L1866.1,1341.4C1813.3,1329.6 1759.3,1352.7 1731.8,1398.9C1719.3,1419.8 1713.8,1443.4 1715.8,1467.1C1718,1493.4 1729.2,1518.3 1749,1541.1C1791.2,1589.7 1801.2,1649 1775.3,1695.9C1750.9,1740 1700.9,1762 1645,1753.3C1636.9,1752.1 1629.1,1751.2 1621.7,1750.7L1616.5,1750.4L1621.2,1752.6C1648.2,1765.3 1666.6,1781 1682.9,1794.8C1706.9,1815.2 1727.4,1832.6 1765.8,1832.6C1781.8,1832.6 1800.9,1829.6 1824.7,1822.5C1853.1,1814.1 1887.5,1828 1906.4,1855.6L1908.2,1858.3L1908.2,1560.5L1906.8,1560.9Z" style="fill:rgb(0,140,255);fill-rule:nonzero;"/>
        <path d="M1114.3,1553.5C1158.8,1551.3 1191.3,1540 1213.7,1518.9C1232.6,1500 1231.1,1481.9 1229.6,1462.6C1228,1442.9 1226.4,1422.5 1248.5,1400.5C1270.6,1378.4 1291,1380.1 1310.7,1381.6C1329.9,1383.1 1348.1,1384.6 1367,1365.7C1385.9,1346.8 1384.4,1328.6 1382.9,1309.4C1382.8,1307.8 1382.6,1306.1 1382.5,1304.5L1382.5,1303.9L1382,1303.7C1355,1291.4 1324.9,1292.7 1287.3,1307.5C1266.8,1315.6 1241.5,1313 1219.7,1300.4C1194.9,1286.1 1178.2,1261.4 1173.8,1232.5C1170.4,1210 1175.3,1190.9 1180.5,1170.7C1186.5,1147.2 1192.8,1122.9 1184.7,1093.1L1184.5,1092.4L1113.3,1092.4C1102.4,1092.4 1093.6,1101.2 1093.6,1112.1L1093.6,1533.9C1093.6,1539.3 1095.8,1544.4 1099.7,1548.1C1103.4,1551.6 1108.2,1553.6 1113.3,1553.6C1113.7,1553.6 1114,1553.6 1114.3,1553.5Z" style="fill:rgb(0,140,255);fill-rule:nonzero;"/>
        <path d="M1486,1152.7C1492.6,1155 1499.6,1156.2 1507.1,1156.2C1521.6,1156.2 1537.7,1151.8 1555.1,1143L1555.6,1142.8L1555.7,1142.3C1557,1132.4 1557.5,1121.8 1556.9,1111C1556.4,1100.6 1547.7,1092.4 1537.2,1092.4L1432.6,1092.4L1433.2,1093.8C1447.7,1126 1465,1145.3 1486,1152.7Z" style="fill:rgb(0,140,255);fill-rule:nonzero;"/>
        <path d="M1660.9,1205.9C1688.1,1229.6 1722.9,1242.6 1759,1242.6C1785.9,1242.6 1812.3,1235.3 1835.4,1221.6L1836.2,1221.1L1835.7,1220.3C1818.3,1189.2 1800.7,1141.9 1814.9,1093.7L1815.3,1092.4L1630.7,1092.4C1625,1092.4 1619.6,1094.9 1615.8,1099.2C1612,1103.6 1610.3,1109.3 1611.2,1115.1C1616.3,1150.2 1634,1182.4 1660.9,1205.9Z" style="fill:rgb(0,140,255);fill-rule:nonzero;"/>
    </g>
    <g transform="matrix(1,0,0,1,-124.067,-207.351)">
        <path d="M1416.1,1542.9C1394.7,1539.6 1374.5,1554.4 1371.2,1575.8C1367.9,1597.2 1382.7,1617.4 1404.1,1620.7C1406.1,1621 1408.1,1621.2 1410.2,1621.2C1418.5,1621.2 1426.6,1618.6 1433.4,1613.6C1441.9,1607.4 1447.4,1598.2 1449,1587.9C1452.3,1566.3 1437.5,1546.2 1416.1,1542.9Z" style="fill:rgb(255,67,112);fill-rule:nonzero;"/>
        <path d="M1218.6,1302.1C1232.3,1310 1247.5,1314.1 1262,1314.1C1271,1314.1 1279.9,1312.5 1288,1309.3C1325.1,1294.7 1354.7,1293.4 1381.1,1305.4L1382.6,1306.1L1382.5,1304.4C1381.2,1285.7 1381.6,1267.3 1401.8,1247.2C1423.8,1225.2 1444.2,1226.8 1464,1228.3C1483.2,1229.8 1501.4,1231.3 1520.2,1212.4C1539.4,1196.6 1551.7,1172.2 1555.7,1142.1L1555.9,1140.2L1554.2,1141.1C1527.9,1154.4 1505.8,1157.5 1486.7,1150.7C1466.2,1143.4 1449.3,1124.5 1435.1,1092.8L1434.8,1092.2L1182.4,1092.2L1182.7,1093.5C1190.6,1122.8 1184.4,1146.8 1178.5,1170.1C1173.5,1189.6 1168.3,1209.8 1171.8,1232.7C1176.2,1262.3 1193.3,1287.6 1218.6,1302.1Z" style="fill:rgb(255,67,112);fill-rule:nonzero;"/>
        <path d="M1824.1,1820.5C1744.3,1844.2 1717.8,1821.7 1684.2,1793.2C1667.8,1779.3 1649.3,1763.6 1622.1,1750.8L1621.9,1750.7L1621.7,1750.7C1567.9,1747.3 1523.6,1762.7 1497.2,1794C1473.3,1822.3 1466.1,1860.5 1476.4,1904.5C1478.5,1913.4 1486.4,1919.7 1495.6,1919.7L1888.5,1919.7C1899.4,1919.7 1908.2,1910.9 1908.2,1900L1908.2,1854.6L1908,1854.3C1888.6,1826 1853.3,1811.8 1824.1,1820.5Z" style="fill:rgb(255,67,112);fill-rule:nonzero;"/>
        <path d="M1242.9,1620.1C1161,1620.1 1094.4,1686.7 1094.4,1768.6C1094.4,1787.6 1097.9,1806.1 1104.9,1823.6L1105.5,1825.1L1106.6,1823.9C1124.5,1803.9 1153.3,1791.7 1183.8,1778.7L1189.2,1776.4L1189.1,1775.6C1188.8,1773.3 1188.6,1770.9 1188.6,1768.6C1188.6,1738.7 1213,1714.3 1242.9,1714.3C1254.6,1714.3 1265.7,1717.9 1275,1724.8L1275.7,1725.3L1276.3,1724.7C1298.8,1702.4 1311.7,1674.7 1315.8,1639.9L1315.9,1639.2L1315.3,1638.9C1293.3,1626.6 1268.3,1620.1 1242.9,1620.1Z" style="fill:rgb(255,67,112);fill-rule:nonzero;"/>
        <path d="M1834.5,1222.1L1835.4,1221.6C1874.3,1198.4 1900.4,1159.4 1906.8,1114.7C1907.6,1109.1 1905.9,1103.5 1902.2,1099.2C1898.4,1094.9 1893,1092.4 1887.2,1092.4L1813.3,1092.4L1813.1,1093.1C1798.6,1142 1816.5,1189.8 1834,1221.3L1834.5,1222.1Z" style="fill:rgb(255,67,112);fill-rule:nonzero;"/>
        <path d="M1897.5,1352.5C1887.3,1347.5 1876.7,1343.8 1866.2,1341.4L1865.1,1341.2L1865,1342.3C1862.6,1368.4 1850.2,1382.8 1837.1,1398.1C1823.4,1414.1 1809.2,1430.6 1803.4,1461.9C1797.3,1494.7 1809.2,1526.9 1835.1,1548.1C1850.1,1560.4 1867.9,1566.9 1884.8,1566.9C1892.7,1566.9 1900.4,1565.5 1907.5,1562.6L1908.1,1562.3L1908.1,1369.9C1908.2,1362.6 1904,1355.7 1897.5,1352.5Z" style="fill:rgb(255,67,112);fill-rule:nonzero;"/>
        <path d="M1387.5,1735.2L1386.3,1736.2C1365.4,1752.2 1349.9,1774.3 1341.7,1800.3C1333.6,1825.7 1332.9,1853.1 1339.7,1879.3L1340.1,1880.9L1341.3,1879.8C1373.1,1851.6 1391.4,1811.1 1391.4,1768.6C1391.4,1757.9 1390.2,1747.2 1387.9,1736.7L1387.5,1735.2Z" style="fill:rgb(255,67,112);fill-rule:nonzero;"/>
        <path d="M1446.6,1343.7L1446.2,1344.5L1447,1344.9C1466.4,1356 1488.6,1363.2 1509.7,1365.3L1510.3,1365.4L1510.6,1364.9C1519.1,1351.9 1534.6,1345 1550,1347.4C1556.5,1348.4 1562.6,1351 1567.8,1354.8L1568.3,1355.2L1568.9,1354.9C1588.2,1344.2 1601.3,1326.6 1607.8,1302.4L1608,1301.7L1607.5,1301.3C1593.7,1291 1577.4,1284.2 1560.2,1281.6C1512.7,1274.3 1466,1299.8 1446.6,1343.7Z" style="fill:rgb(255,67,112);fill-rule:nonzero;"/>
    </g>
    <g transform="matrix(1,0,0,1,-124.067,-207.351)">
        <path d="M2813.1,653.9C2786.2,620.5 2742.1,605.8 2700.7,616.4L2653.7,628.5C2576.8,648.2 2496.2,645.9 2420.5,621.7L1574.7,351.5C1561.7,347.4 1547.8,349.5 1536.6,357.4C1525.4,365.3 1518.8,377.7 1518.4,391.3C1516.8,446.4 1537.4,484.5 1575.2,514.9C1577.6,516.9 1576.1,520.7 1573,520.4L1468.2,510.3C1453.4,508.9 1439.1,515.1 1429.9,526.9C1420.8,538.6 1418.4,553.9 1423.4,567.9C1447.8,635.4 1504.7,664.2 1608.6,679.7C1612.2,680.2 1612.2,685.4 1608.6,685.9L1519.4,698.7C1505.5,700.7 1493,708.9 1486.6,721.3C1479.5,735.1 1480.5,751.3 1489.1,764C1520.7,810.7 1567.3,828.6 1639.5,828.6C1663.3,828.6 1690,826.6 1719.8,823.1C1723.4,822.7 1724.7,827.7 1721.4,829.1L1681.9,845.8C1667.3,851.7 1657.4,864.6 1655.4,880.2C1653.4,895.9 1659.8,911 1672.5,920.6C1694.2,936.8 1717.8,944.3 1745.9,944.3C1809.9,944.3 1897,905.5 2037,843L2043.4,840.1C2119.5,806.2 2175.9,793.5 2217.8,801.8C2255.7,809.3 2281.5,845.4 2274.8,883.4C2274.8,883.6 2274.7,883.8 2274.7,884C2267.3,924.9 2230.7,944.6 2188.3,967.3C2130.2,998.5 2064.3,1033.9 2069.9,1134.6C2070.8,1151.3 2079.3,1166.3 2093,1175.7C2101.9,1181.8 2112.3,1184.9 2122.7,1184.9C2128.2,1184.9 2133.8,1184 2139.3,1182.3L2798.3,966.9C2837.9,954 2867,919.2 2872.5,878.4C2884.4,793.1 2864.3,717.5 2813.1,653.9ZM1447,559.4C1444.8,553.5 1445.8,547.2 1449.7,542.2C1453.6,537.1 1459.5,534.6 1465.9,535.2L1568.1,545C1579.4,548.6 1590.7,548.7 1602.6,550C1618.7,551.8 1634.2,556.7 1649.4,562.2C1667.1,568.7 1684.5,575.6 1702.6,580.2C1728.1,589.9 1755.7,599.7 1785.2,610.1C1797.9,614.6 1810.9,619.1 1824.3,623.9C1844.8,631.2 1864.9,638.2 1884.6,645C1886.8,646 1889,647.1 1891.1,648.4C1901.5,654.9 1904.7,667.8 1890.4,672.2C1885.2,673.9 1879.8,674.7 1874.4,675C1874,675 1873.7,675 1873.3,674.9C1827,672.5 1785.2,670.4 1747.6,668C1745.5,667 1743.1,666.6 1740.7,667L1738,667.4C1557.1,655.6 1475.2,637.5 1447,559.4ZM1639.1,804.2C1575.5,804.2 1536.1,788.8 1509.8,750C1506.5,745.1 1505.9,739.1 1508.4,733.6C1510.9,728 1515.7,724.3 1521.7,723.5L1693.2,698.9C1716.4,696.3 1739.7,694.8 1763.1,694.7C1782.3,694.6 1803.4,698.1 1823.4,697.3C1839,698.1 1855.2,699 1871.9,699.8C1913.6,702 1959.2,704.3 2008.6,707.2C2015.2,709 2022.3,709.4 2029.4,710.4C2035.8,712.4 2042.9,712.9 2050.2,714.7C2055.7,716 2063.9,718.9 2064,726.2C2064.1,733.1 2056.3,736.6 2051.1,738.5C2046.6,740.1 2042.1,741.2 2037.7,742.7C2007.1,748.3 1978.2,753.8 1951,758.9C1910.6,766.5 1873.7,773.4 1840,779.4C1839.9,779.4 1839.8,779.4 1839.8,779.5C1754.3,794.7 1689.2,804.2 1639.1,804.2ZM2109,781.6C2107.9,782.9 2106.7,784.1 2105.4,785.2C2104.7,785.7 2103.9,786.3 2103.1,786.8C2097.8,789.9 2092.3,792.9 2086.9,795.8C2070.1,801.8 2052.2,808.9 2033.3,817.4L2026.9,820.2C1834.7,905.9 1747,945 1687.5,900.6C1682,896.5 1679.3,890.1 1680.1,883.4C1681,876.7 1685,871.5 1691.4,868.9L1803.7,821.4C1832.5,811.8 1861.5,803.1 1890.9,795.4C1911.5,791.6 1933,787.5 1955.5,783.3C1994.1,776 2036.1,768.2 2081.4,760C2085.2,760.1 2089.1,759.7 2092.8,759.4C2105.3,760 2122.1,766.1 2109,781.6ZM2848.1,875.2C2843.8,906.7 2821.3,933.4 2790.8,943.4L2444,1056.7C2442.8,1051.1 2441.1,1045.9 2439.2,1040.9C2437.5,1036.7 2435.7,1032.6 2433.7,1028.7C2431.6,1024.7 2429.6,1021.1 2427,1017C2424.5,1013.1 2419.4,1011.6 2415.1,1013.6C2410.4,1015.8 2408.4,1021.4 2410.6,1026L2410.8,1026.4C2412.3,1029.5 2413.9,1033.3 2415.1,1036.8C2416.4,1040.4 2417.5,1044 2418.5,1047.6C2419.4,1051.2 2420.1,1054.8 2420.5,1058.2C2420.7,1060.2 2420.7,1062.2 2420.7,1064.1L2395,1072.5C2394.8,1071.2 2394.5,1070 2394.3,1068.7C2392.9,1062.9 2391.1,1057.3 2389.1,1051.9C2387,1046.5 2384.7,1041.3 2382.2,1036.3C2379.6,1031.2 2377,1026.4 2373.8,1021.3C2371.3,1017.3 2366.1,1015.8 2361.7,1017.9C2357.1,1020.2 2355.2,1025.8 2357.5,1030.4L2357.7,1030.7C2359.8,1034.9 2361.9,1039.8 2363.7,1044.4C2365.5,1049.1 2367.1,1053.9 2368.4,1058.7C2369.7,1063.5 2370.7,1068.2 2371.4,1072.9C2371.7,1075.3 2371.9,1077.6 2371.9,1079.9L2300.1,1103.4C2292.8,1104.8 2285.5,1105.2 2279.5,1101.7C2275,1099.1 2271.6,1095.9 2267.8,1093.2C2264.6,1090.8 2261.1,1088.8 2257.6,1087.3C2250.8,1084.3 2243.9,1082.6 2237.2,1081.7C2230.4,1080.7 2223.8,1080.5 2217.3,1080.7C2204.3,1081.1 2191.9,1083.2 2179.7,1086C2173.7,1087.4 2167.7,1089.1 2161.8,1090.9C2155.8,1092.8 2150.2,1094.8 2144.1,1097.2C2139.6,1099 2137.1,1104.1 2138.7,1108.8C2140.3,1113.7 2145.5,1116.4 2150.5,1114.8L2150.8,1114.7C2161.4,1111.3 2172.9,1108.6 2184.1,1106.5C2195.4,1104.5 2206.7,1103.3 2217.6,1103.5C2223.5,1103.6 2229.3,1104.2 2234.7,1105.4C2242.1,1108.1 2253.7,1114 2244.8,1120.3C2243.7,1121.1 2242.6,1121.8 2241.6,1122.5L2131.9,1158.3C2123.6,1161 2114.7,1159.7 2107.5,1154.8C2100.2,1149.8 2095.7,1141.8 2095.2,1132.9C2090.5,1048 2143.9,1019.3 2200.4,989C2219.5,978.7 2239,968.3 2255.6,955.4C2269.4,947.5 2282.9,938.6 2295.5,928C2308.2,917.4 2319.9,905 2329.2,890.5L2332.6,885C2333.6,883.1 2334.6,881.2 2335.6,879.2L2338.5,873.4L2340.8,867.3C2341.5,865.3 2342.3,863.2 2343,861.2L2344.6,854.9C2345.1,852.8 2345.7,850.7 2346.1,848.6L2347,842.1C2349.3,824.9 2347.3,807.8 2343.1,791.7C2341.9,787 2337.2,783.9 2332.3,784.8C2327.2,785.8 2323.9,790.6 2324.8,795.7L2324.9,796C2327.6,810.4 2328.1,825 2325.6,838.8C2324.2,846.6 2321.7,854.2 2318.4,861.4C2318,862.2 2317.5,862.9 2317.1,863.5C2314.7,866.7 2309.6,871.4 2305.1,867.8C2302.9,866 2302.5,862.4 2302,859.8C2301.8,859 2301.7,858.2 2301.5,857.4C2296.4,779.9 2210.8,733.5 2084.7,686.9C2084.3,686.7 2084,686.6 2083.6,686.5C2045.9,672.6 2004.7,658.7 1960.9,643.9C1919.9,630.1 1877.5,615.8 1832.8,599.8C1819.4,595 1806.3,590.4 1793.6,585.9C1734.6,565.1 1684.3,547.3 1644.7,527.8C1644.4,527.6 1644.1,527.5 1643.8,527.3C1577.9,494.7 1541.6,456.9 1543.6,391.4C1543.8,385.6 1546.6,380.4 1551.3,377.1C1554.4,374.9 1558.1,373.7 1561.8,373.7C1563.7,373.7 1565.5,374 1567.4,374.6L1675.2,409C1676.5,409.7 1677.7,410.5 1678.9,411.3C1686.8,416.6 1678.9,421 1673.1,423.1C1666.8,425.1 1660.1,426.3 1653.2,426.9C1642.6,427.7 1631.6,427 1620.6,425.2C1615.1,424.3 1609.7,423.1 1604.2,421.7C1598.8,420.3 1593.2,418.6 1588.4,416.8L1588,416.6C1583.6,415 1578.6,416.9 1576.5,421.2C1574.2,425.8 1576,431.4 1580.6,433.8C1586.6,436.9 1592.2,439 1598.2,441.2C1604.1,443.4 1610.1,445.1 1616.3,446.6C1628.6,449.6 1641.4,451.2 1654.5,450.9C1661.1,450.7 1667.7,450 1674.3,448.7C1680.9,447.3 1687.4,445.1 1693.7,442.3C1695,441.7 1696.3,441.1 1697.6,440.4C1698.1,440.3 1698.6,440.1 1699.2,439.8C1704.6,436.6 1710,432.5 1715.7,429.9C1724.4,426 1729.9,427.3 1738.2,429.8C1741.8,430.9 1745.2,431.8 1748.6,432.4L1803.8,450C1802.1,452.8 1800.4,455.7 1798.8,458.6C1797,462 1795.2,465.5 1793.5,469C1791.8,472.6 1790.2,476 1788.6,479.9C1786.9,484.1 1788.4,489.1 1792.5,491.5C1797,494.1 1802.7,492.6 1805.3,488.2L1805.5,487.8C1807.1,485.1 1809.1,481.9 1811,479C1813,476.1 1815,473.1 1817.1,470.3C1820.3,465.9 1823.8,461.7 1827.4,457.6L2001.4,513.2C1999.6,515.6 1997.8,518.1 1996.1,520.7C1993.7,524.3 1991.5,528 1989.5,531.9C1987.4,535.8 1985.7,539.4 1983.9,544C1982.2,548.3 1983.8,553.3 1988,555.6C1992.5,558.2 1998.2,556.6 2000.7,552.1L2001,551.5C2002.5,548.8 2004.7,545.4 2006.8,542.5C2009,539.5 2011.2,536.6 2013.7,533.8C2017.6,529.2 2021.9,525 2026.4,521.2L2056.3,530.8C2052.7,535.1 2049.4,539.6 2046.3,544.2C2043.1,548.8 2040.2,553.6 2037.5,558.5C2034.8,563.5 2032.4,568.2 2030.1,573.9C2028.3,578.3 2030.1,583.4 2034.3,585.7C2038.9,588.1 2044.5,586.4 2047,581.9L2047.2,581.5C2049.3,577.6 2052,573.2 2054.8,569.2C2057.6,565.1 2060.6,561.2 2063.8,557.4C2069.3,550.7 2075.4,544.6 2081.8,539.1L2413,645.5C2493.1,671.1 2578.5,673.6 2660,652.7L2707,640.7C2738.9,632.5 2773,643.9 2793.8,669.7C2840.4,727.6 2858.7,796.8 2848.1,875.2ZM2299.1,890C2299.2,890 2299.2,890.1 2299.3,890.1C2299.2,890.2 2299.1,890.3 2299.1,890.4C2299,890.3 2299.1,890.2 2299.1,890Z" style="fill:rgb(130,46,129);fill-rule:nonzero;"/>
        <path d="M2815.5,2013.7L2576.8,1854.6C2568.1,1848.8 2562.9,1839.1 2562.9,1828.7L2562.9,1300.6C2562.9,1293.7 2557.3,1288.1 2550.4,1288.1L2023.6,1288.1C2009.8,1288.1 1998.7,1276.9 1998.7,1263.2L1998.7,1013.8C1998.7,1006.9 1993.1,1001.3 1986.2,1001.3L1353.4,1001.3C1339.6,1001.3 1328.5,990.1 1328.5,976.4L1328.5,727C1328.5,726.7 1328.4,726.4 1328.4,726.1C1328.4,725.6 1328.3,725.2 1328.3,724.7C1328.2,724.3 1328.1,724 1328,723.6C1327.9,723.2 1327.8,722.8 1327.6,722.4C1327.4,722 1327.2,721.7 1327,721.3C1326.8,721 1326.7,720.6 1326.4,720.3C1326.2,719.9 1325.8,719.6 1325.5,719.2C1325.3,719 1325.2,718.7 1325,718.5C1325,718.4 1324.9,718.4 1324.9,718.4C1324.6,718.1 1324.2,717.7 1323.8,717.4C1323.6,717.2 1323.3,717 1323.1,716.8C1322.8,716.6 1322.4,716.4 1322,716.2C1321.7,716 1321.3,715.8 1321,715.7C1320.7,715.5 1320.3,715.5 1320,715.4C1319.6,715.2 1319.1,715.1 1318.7,715C1318.4,714.9 1318.1,714.9 1317.8,714.9C1317.3,714.8 1316.8,714.8 1316.3,714.8L449.6,714.8C442.7,714.8 437.1,720.4 437.1,727.3L437.1,1217.7C437.1,1231.5 425.9,1242.6 412.2,1242.6L295.9,1242.6C295.1,1242.6 294.4,1242.7 293.6,1242.8C293.2,1242.9 292.9,1243 292.5,1243.1C292.1,1243.2 291.7,1243.3 291.3,1243.5C290.9,1243.7 290.5,1243.9 290.1,1244.1C289.8,1244.3 289.4,1244.4 289.1,1244.6C288.5,1245 287.9,1245.5 287.4,1246C287.3,1246 287.3,1246.1 287.2,1246.1C287.1,1246.1 287.1,1246.2 287.1,1246.3C286.6,1246.8 286.1,1247.4 285.7,1248C285.5,1248.3 285.3,1248.7 285.2,1249C285,1249.4 284.8,1249.7 284.6,1250.2C284.4,1250.6 284.4,1251 284.2,1251.5C284.1,1251.8 284,1252.2 283.9,1252.5C283.7,1253.3 283.7,1254.1 283.7,1255L283.7,1562C283.7,1562.8 283.8,1563.7 283.9,1564.4C284,1564.8 284.1,1565.1 284.2,1565.4C284.4,1565.8 284.4,1566.3 284.6,1566.7C284.8,1567.1 285,1567.5 285.2,1567.9C285.4,1568.2 285.5,1568.6 285.7,1568.9C286.2,1569.6 286.7,1570.2 287.3,1570.8C287.9,1571.4 288.5,1571.9 289.2,1572.4C289.5,1572.6 289.9,1572.7 290.2,1572.9C290.6,1573.1 291,1573.3 291.4,1573.5C291.8,1573.7 292.2,1573.8 292.7,1573.9C293,1574 293.4,1574.1 293.7,1574.2C294.5,1574.4 295.4,1574.4 296.2,1574.4L412.3,1574.4C426.1,1574.4 437.2,1585.6 437.2,1599.3L437.2,1699.6C437.2,1706.5 442.8,1712.1 449.7,1712.1L976.5,1712.1C990.3,1712.1 1001.4,1723.3 1001.4,1737L1001.4,1986.4C1001.4,1993.3 1007,1998.9 1013.9,1998.9L1646.7,1998.9C1660.5,1998.9 1671.6,2010.1 1671.6,2023.8L1671.6,2273C1671.6,2273.3 1671.7,2273.6 1671.7,2273.8C1671.7,2274.3 1671.8,2274.8 1671.8,2275.2C1671.9,2275.6 1672,2275.9 1672.1,2276.3C1672.2,2276.7 1672.3,2277.1 1672.5,2277.5C1672.7,2277.9 1672.8,2278.2 1673.1,2278.6C1673.3,2279 1673.4,2279.3 1673.7,2279.7C1673.9,2280.1 1674.3,2280.4 1674.5,2280.8C1674.7,2281 1674.8,2281.3 1675.1,2281.5C1675.1,2281.6 1675.2,2281.6 1675.2,2281.6C1675.6,2282 1676.1,2282.4 1676.5,2282.7C1676.7,2282.9 1676.9,2283 1677.1,2283.2C1677.8,2283.7 1678.5,2284 1679.3,2284.4C1679.5,2284.5 1679.7,2284.5 1679.9,2284.6C1680.5,2284.8 1681.1,2285 1681.7,2285.2C1682.5,2285.4 1683.3,2285.4 1684,2285.4L2550.7,2285.4C2557.6,2285.4 2563.2,2279.8 2563.2,2272.9L2563.2,2090.7C2563.2,2080.7 2574.3,2074.8 2582.6,2080.3L2713.2,2167.3C2715.3,2168.7 2717.7,2169.4 2720.1,2169.4C2724.1,2169.4 2728.1,2167.4 2730.5,2163.8L2819.3,2030.6C2822.8,2025.2 2821.2,2017.5 2815.5,2013.7ZM1998.7,1337.9C1998.7,1324.1 2009.9,1313 2023.6,1313L2513,1313C2526.8,1313 2537.9,1324.2 2537.9,1337.9L2537.9,1405.9C2537.9,1419.7 2526.7,1430.8 2513,1430.8L2023.6,1430.8C2009.8,1430.8 1998.7,1419.6 1998.7,1405.9L1998.7,1337.9ZM1303.6,785L1303.6,976.4C1303.6,990.2 1292.4,1001.3 1278.7,1001.3L1076.3,1001.3C1065,1001.3 1059.5,987.6 1067.7,979.8L1282.6,776C1290.5,768.4 1303.6,774 1303.6,785ZM462,764.4C462,750.6 473.2,739.5 486.9,739.5L1253.5,739.5C1264.8,739.5 1270.3,753.2 1262.1,761L1174,844.5C1168.2,850 1160.5,853.1 1152.5,853.1L487,853.1C473.2,853.1 462.1,841.9 462.1,828.2L462.1,764.4L462,764.4ZM341.2,1267.3L558,1267.3C563.5,1267.3 566.3,1274 562.4,1277.9L456.2,1384C452.6,1387.6 446.6,1387.6 443,1384L336.9,1277.9C332.9,1274 335.7,1267.3 341.2,1267.3ZM579.9,1295.6C583.8,1291.7 590.5,1294.4 590.5,1300L590.5,1516.7C590.5,1522.2 583.8,1525 579.9,1521.1L473.8,1415C470.2,1411.4 470.2,1405.4 473.8,1401.8L579.9,1295.6ZM308.5,1516.6L308.5,1299.9C308.5,1294.4 315.2,1291.6 319.1,1295.5L425.2,1401.6C428.8,1405.2 428.8,1411.2 425.2,1414.8L319.2,1521C315.2,1525 308.5,1522.2 308.5,1516.6ZM341.2,1549.3C335.7,1549.3 332.9,1542.6 336.8,1538.7L442.9,1432.6C446.5,1429 452.5,1429 456.1,1432.6L562.2,1538.7C566.1,1542.6 563.4,1549.3 557.8,1549.3L341.2,1549.3ZM1005.2,1004.7C1005.1,1004.7 1005.1,1004.8 1005.1,1004.8C1004.8,1005.1 1004.4,1005.5 1004.1,1005.9C1003.9,1006.1 1003.7,1006.4 1003.5,1006.6C1003.3,1007 1003.1,1007.4 1002.9,1007.8C1002.7,1008.1 1002.5,1008.4 1002.4,1008.8C1002.2,1009.1 1002.2,1009.5 1002,1009.9C1001.9,1010.3 1001.7,1010.7 1001.6,1011.1C1001.5,1011.4 1001.5,1011.8 1001.5,1012.1C1001.4,1012.6 1001.4,1013.1 1001.4,1013.6L1001.4,1662.1C1001.4,1675.9 990.2,1687 976.5,1687L487,1687C473.2,1687 462.1,1675.8 462.1,1662.1L462.1,1599.2C462.1,1585.4 473.3,1574.3 487,1574.3L603,1574.3C603.8,1574.3 604.7,1574.2 605.5,1574.1C605.8,1574 606.2,1573.9 606.5,1573.8C606.9,1573.7 607.4,1573.6 607.8,1573.4C608.2,1573.2 608.6,1573 609,1572.8C609.3,1572.6 609.7,1572.5 610,1572.3C610.7,1571.8 611.3,1571.3 611.9,1570.7C612.5,1570.1 613,1569.5 613.5,1568.8C613.7,1568.5 613.8,1568.1 614,1567.8C614.2,1567.4 614.4,1567.1 614.6,1566.6C614.8,1566.2 614.8,1565.7 615,1565.3C615.1,1565 615.2,1564.6 615.3,1564.3C615.5,1563.5 615.5,1562.7 615.5,1561.9L615.5,1254.9C615.5,1254.1 615.4,1253.2 615.3,1252.4C615.2,1252.1 615.1,1251.7 615,1251.4C614.9,1251 614.8,1250.5 614.6,1250.1C614.4,1249.7 614.2,1249.3 614,1248.9C613.8,1248.6 613.7,1248.2 613.5,1247.9C613.1,1247.3 612.6,1246.7 612.1,1246.2C612.1,1246.1 612,1246.1 612,1246C611.9,1245.9 611.9,1245.9 611.8,1245.9C611.3,1245.4 610.7,1244.9 610.1,1244.5C609.8,1244.3 609.4,1244.2 609.1,1244C608.7,1243.8 608.3,1243.6 607.9,1243.4C607.5,1243.2 607.1,1243.2 606.7,1243C606.4,1242.9 606,1242.8 605.6,1242.7C604.9,1242.5 604.1,1242.5 603.3,1242.5L487,1242.5C473.2,1242.5 462.1,1231.3 462.1,1217.6L462.1,902.9C462.1,889.1 473.3,878 487,878L1107.5,878C1118.8,878 1124.2,891.7 1116.1,899.5L1005.2,1004.7ZM1051.1,1973.8C1037.3,1973.8 1026.2,1962.6 1026.2,1948.9L1026.2,1051.2C1026.2,1037.4 1037.4,1026.3 1051.1,1026.3L1948.8,1026.3C1962.6,1026.3 1973.7,1037.5 1973.7,1051.2L1973.7,1948.9C1973.7,1962.7 1962.5,1973.8 1948.8,1973.8L1051.1,1973.8ZM1696.4,2215L1696.4,2023.6C1696.4,2009.8 1707.6,1998.7 1721.3,1998.7L1923.7,1998.7C1935,1998.7 1940.5,2012.4 1932.3,2020.2L1717.4,2224C1709.5,2231.6 1696.4,2226 1696.4,2215ZM2538,2235.6C2538,2249.4 2526.8,2260.5 2513.1,2260.5L1746.5,2260.5C1735.2,2260.5 1729.7,2246.8 1737.9,2239L1994.9,1995.2C1995,1995.2 1995,1995.1 1995,1995.1C1995.3,1994.8 1995.6,1994.4 1995.9,1994C1996.1,1993.7 1996.4,1993.5 1996.6,1993.2C1996.8,1992.9 1997,1992.5 1997.2,1992.1C1997.4,1991.8 1997.6,1991.4 1997.8,1991.1C1998,1990.8 1998,1990.4 1998.1,1990.1C1998.3,1989.7 1998.4,1989.3 1998.5,1988.8C1998.6,1988.5 1998.6,1988.2 1998.6,1987.9C1998.7,1987.4 1998.7,1986.9 1998.7,1986.4L1998.7,1480.7C1998.7,1467 2009.9,1455.8 2023.6,1455.8L2513,1455.8C2526.8,1455.8 2537.9,1467 2537.9,1480.7L2537.9,1805.3C2537.9,1815.2 2526.8,1821.2 2518.5,1815.6L2418.6,1749C2418,1748.6 2417.3,1748.3 2416.6,1747.9C2416.4,1747.8 2416.3,1747.8 2416.2,1747.7C2415.5,1747.5 2414.9,1747.3 2414.2,1747.1C2414,1747.1 2413.9,1747.1 2413.7,1747C2413.5,1746.9 2413.2,1746.9 2412.9,1746.9L2243.1,1729.9L2242.5,1729.9C2238.7,1729.7 2235,1731.2 2232.5,1734C2232.1,1734.4 2231.8,1734.9 2231.5,1735.4C2231.2,1735.9 2230.9,1736.4 2230.6,1736.9C2230.6,1737 2230.6,1737.1 2230.5,1737.1C2230.3,1737.6 2230.1,1738 2229.9,1738.5C2229.9,1738.6 2229.8,1738.8 2229.8,1738.9C2229.7,1739.3 2229.6,1739.7 2229.5,1740.1C2229.5,1740.3 2229.4,1740.6 2229.4,1740.8C2229.4,1741.1 2229.3,1741.4 2229.3,1741.7L2229.3,1743.4C2229.3,1743.7 2229.4,1744.1 2229.5,1744.5C2229.5,1744.7 2229.5,1744.9 2229.6,1745.1C2229.7,1745.5 2229.8,1745.8 2229.9,1746.2C2230,1746.4 2230,1746.5 2230.1,1746.7C2230.2,1747.1 2230.4,1747.4 2230.6,1747.8C2230.7,1747.9 2230.7,1748.1 2230.8,1748.2L2231,1748.5L2311.8,1898.2C2311.9,1898.3 2312,1898.4 2312,1898.5C2312.3,1899.1 2312.7,1899.6 2313.2,1900.2C2313.4,1900.4 2313.5,1900.6 2313.7,1900.8C2314.3,1901.5 2315,1902.1 2315.9,1902.6L2523.9,2041.3C2532.6,2047.1 2537.8,2056.8 2537.8,2067.2L2537.8,2235.6L2538,2235.6ZM2382.5,1780.8L2372.4,1795.9L2341.6,1842.2L2331.5,1857.3C2328.2,1862.3 2320.7,1861.9 2317.9,1856.6L2305.3,1833.2C2300.7,1824.7 2301.2,1814.3 2306.6,1806.2L2326,1777.1C2331.4,1769 2340.7,1764.6 2350.4,1765.6L2376.8,1768.2C2382.7,1769.1 2385.8,1775.9 2382.5,1780.8ZM2723.9,2128.5C2721.3,2132.4 2716.9,2134.6 2712.6,2134.6C2710,2134.6 2707.4,2133.9 2705,2132.3L2351.6,1896.7C2345.3,1892.5 2343.7,1884 2347.8,1877.8C2350.4,1873.9 2354.8,1871.7 2359.1,1871.7C2361.7,1871.7 2364.3,1872.4 2366.6,1874L2720,2109.6C2726.4,2113.8 2728.1,2122.3 2723.9,2128.5ZM2753.8,2083.7C2750.8,2088.1 2745.9,2090.5 2741,2090.5C2738.1,2090.5 2735.1,2089.7 2732.5,2087.9L2382,1854.3C2375,1849.6 2373.1,1840.1 2377.8,1833C2380.8,1828.6 2385.6,1826.2 2390.5,1826.2C2393.4,1826.2 2396.4,1827 2399,1828.8L2749.5,2062.5C2756.6,2067.1 2758.5,2076.6 2753.8,2083.7ZM2783.7,2038.8C2781.1,2042.7 2776.7,2044.9 2772.4,2044.9C2769.8,2044.9 2767.2,2044.2 2764.9,2042.6L2411.4,1807C2405.2,1802.8 2403.5,1794.3 2407.6,1788.1C2410.2,1784.2 2414.6,1782 2418.9,1782C2421.5,1782 2424.1,1782.7 2426.5,1784.3L2779.9,2019.9C2786.2,2024.1 2787.9,2032.5 2783.7,2038.8Z" style="fill:rgb(130,46,129);fill-rule:nonzero;"/>
        <path d="M2782,764.2C2780.5,760.5 2778.8,756.9 2777.2,753.3C2776.4,751.5 2775.6,749.7 2774.7,747.9L2771.8,742.7C2764.5,728.6 2754.2,716.3 2743.2,705.1C2740.1,702 2735.1,701.4 2731.3,703.9C2727,706.8 2725.9,712.6 2728.7,716.9L2729.1,717.6C2737,729.4 2744.9,740.9 2750.6,753.7L2752.9,758.4C2753.7,760 2754.2,761.6 2754.9,763.3L2758.8,773C2760.9,779.6 2763.2,786.2 2764.8,793.1C2768.3,806.6 2770.5,820.6 2771.5,834.7L2772.1,845.3C2772.1,848.8 2772.3,852.4 2772.2,855.9C2772.2,859.4 2772.1,863 2771.9,866.5C2771.7,870 2771.5,873.7 2771.2,876.8L2771.1,877.5C2770.7,881.9 2773.6,886.2 2778,887.3C2783,888.6 2788.1,885.6 2789.4,880.7C2790.5,876.5 2791.3,872.8 2792,868.9C2792.7,865 2793.2,861.1 2793.7,857.2C2794.2,853.3 2794.3,849.4 2794.6,845.5C2794.8,841.6 2794.8,837.7 2794.8,833.8C2794.7,818.1 2792.6,802.4 2788.8,787.1C2787.3,779.1 2784.5,771.7 2782,764.2Z" style="fill:rgb(130,46,129);fill-rule:nonzero;"/>
        <circle cx="2471.5" cy="1370.6" r="20.3" style="fill:rgb(130,46,129);"/>
        <path d="M2399.4,771.6L2396.3,764.8C2395.1,762.6 2394,760.4 2392.7,758.3C2391.4,756.2 2390.1,754.1 2388.6,752.1C2387.1,750 2385.6,748.2 2383.6,746C2381,743.1 2376.7,742 2373,743.6C2368.2,745.6 2366,751.1 2368,755.9L2368.5,757.1L2370.8,762.5C2371.6,764.4 2372.4,766.3 2373.1,768.2C2374.6,772.1 2375.9,776 2377.2,779.9C2379.7,787.7 2381.4,795.7 2382.4,803.7C2383.1,807.7 2383,811.7 2383.4,815.7C2383.2,819.7 2383.5,823.7 2383,827.7C2382.6,835.8 2380.7,843.7 2378.9,851.9L2378.7,852.8C2377.9,856.8 2379.7,861.1 2383.5,863C2388.1,865.4 2393.8,863.6 2396.2,859C2400.8,850.2 2404.5,840.8 2406.1,830.8C2407.3,825.9 2407.4,820.8 2407.8,815.7C2407.8,810.7 2407.8,805.6 2407.1,800.6C2405.8,790.6 2403.3,780.7 2399.4,771.6Z" style="fill:rgb(130,46,129);fill-rule:nonzero;"/>
        <circle cx="2390.2" cy="1370.6" r="20.3" style="fill:rgb(130,46,129);"/>
        <path d="M2089.6,1663.8C2100.6,1670.2 2113.2,1674.1 2126,1674.8C2134.5,1675.3 2143.1,1674.5 2151.3,1672.4C2152,1672.5 2152.8,1672.3 2153.6,1672C2163.2,1668 2172,1668.6 2180.9,1672.3C2190,1678.2 2200.5,1682 2211.1,1683.3C2224.1,1684.8 2236.9,1683.1 2248.7,1679.4C2250,1679 2251.4,1678.5 2252.7,1678.1C2255.4,1677.3 2258.9,1676.2 2261.5,1676.9C2264.1,1677.6 2265.9,1679.8 2268.1,1681.1C2268.5,1681.4 2268.9,1681.6 2269.4,1681.8C2270,1682.2 2270.5,1682.7 2271.1,1683.1C2282.7,1691.2 2297.1,1693.9 2310,1692.3C2323,1690.6 2334.9,1685 2344.3,1677.1C2347.7,1674.3 2348.7,1669.3 2346.4,1665.3C2343.9,1660.8 2338.1,1659.2 2333.7,1661.7L2333.5,1661.8C2325.4,1666.4 2316.5,1669.2 2308,1669.5C2300.9,1669.8 2294.3,1668.3 2288.8,1665.2C2287.6,1663.6 2286.8,1661.8 2287.2,1659.8C2287.4,1658.9 2287.9,1658 2288.5,1657.2C2295.4,1651.5 2301.7,1645.2 2307.2,1638.3C2314.7,1629 2321,1618.8 2325.9,1608C2330.7,1597.1 2334.5,1585.9 2335.9,1572.9C2336.4,1566.4 2336.4,1559.4 2334.1,1551.7C2333.5,1549.8 2332.6,1547.8 2331.7,1545.9C2330.5,1544 2329.5,1542.1 2327.9,1540.3C2325,1536.6 2320.6,1533.5 2315.9,1531.9C2313.5,1531 2311.2,1530.6 2308.8,1530.3C2307.6,1530.2 2306.5,1530.2 2305.3,1530.2C2304.1,1530.2 2303,1530.3 2302,1530.4C2300.9,1530.6 2299.8,1530.7 2298.8,1530.9L2295.9,1531.7C2293.9,1532.2 2292.2,1533.1 2290.4,1533.8C2283.5,1537.1 2278.3,1541.6 2273.8,1546.4C2264.9,1556.1 2259.1,1567.1 2254.9,1578.3C2250.7,1589.6 2248.1,1600.9 2246.7,1612.7C2245.3,1624.5 2245.4,1637 2248.8,1649.5C2248.9,1649.9 2249.1,1650.4 2249.2,1650.8C2246.5,1652 2243.7,1653.1 2240.9,1653.9C2232.1,1656.6 2223,1657.6 2214.5,1656.6C2210.3,1656 2206.3,1654.9 2202.5,1653.3C2201.3,1652 2200.4,1650.6 2199.8,1649.2C2198.3,1645.8 2200.8,1642.3 2202.6,1638.8C2207.8,1632.7 2212.5,1626.1 2216.3,1619.2L2218.5,1615.4L2220.5,1611.5C2221.8,1608.9 2223.1,1606.3 2224.4,1603.6L2227.7,1595.5L2229.3,1591.5L2230.7,1587.4C2234.5,1576.7 2237.4,1565.5 2239.4,1553.9C2241.3,1542.3 2242.1,1530.1 2239.6,1517L2239.2,1514.6L2238.5,1512.1C2238,1510.4 2237.5,1508.8 2236.9,1507.1L2234.7,1502.1C2234,1500.4 2232.8,1498.8 2231.8,1497.2C2230.9,1495.5 2229.4,1494 2228,1492.5C2226.7,1490.9 2225,1489.5 2223.3,1488.2C2221.7,1486.8 2219.7,1485.7 2217.7,1484.7C2215.8,1483.6 2213.6,1483 2211.4,1482.4C2202.5,1480.2 2193.6,1482 2186.8,1485.3C2179.9,1488.7 2174.4,1493.2 2169.9,1498.2C2161,1508.2 2155.5,1519.6 2151.6,1531.1C2147.7,1542.6 2145.7,1554.3 2144.6,1565.9C2143.5,1577.5 2143.7,1588.9 2144.6,1600.7C2145.4,1609.1 2146.9,1617.6 2149.5,1626.1C2149.9,1628.7 2150.8,1631.4 2150.9,1633.9C2151.2,1640.9 2149,1644.1 2145.2,1647C2130.9,1650.6 2115.6,1648.6 2102.8,1641.2C2087.3,1632.4 2076.5,1616.2 2072.1,1598C2069.7,1588.9 2068.9,1579.2 2068.9,1569.4C2068.9,1559.6 2070.5,1549.6 2072.1,1539.5L2072.2,1538.9C2072.9,1534.6 2070.4,1530.2 2066.2,1528.6C2061.3,1526.8 2056,1529.3 2054.2,1534.2C2050.3,1544.9 2047.1,1556.2 2046,1567.9C2044.9,1579.7 2045.3,1591.7 2047.8,1603.7C2052.4,1628 2067.4,1651 2089.6,1663.8ZM2271.6,1616C2272.8,1606.4 2275,1596.5 2278.5,1587.6C2280.2,1583.1 2282.2,1578.8 2284.5,1574.8C2286.8,1570.9 2289.5,1567.2 2292.3,1564.1C2295.2,1561 2298.4,1558.5 2301.3,1557.2C2304.2,1555.9 2306.6,1555.7 2307.2,1556.2C2307.6,1556.3 2307.8,1556.4 2308.2,1557C2308.4,1557.1 2308.6,1557.7 2308.9,1558C2309.1,1558.5 2309.4,1559.1 2309.6,1559.7C2310.4,1562.4 2310.7,1566.4 2310.3,1570.6C2309.9,1574.9 2308.8,1579.4 2307.5,1583.9C2306.8,1586.2 2306,1588.5 2305.1,1590.7L2302.3,1597.4C2298.2,1606.2 2293.1,1614.5 2287,1622C2284.1,1625.6 2280.9,1628.9 2277.6,1632.1C2277.1,1632.3 2276.6,1632.5 2276.1,1632.7C2272.8,1633.6 2271.5,1631.7 2271,1629.3C2270.8,1624.9 2271,1620.4 2271.6,1616ZM2171,1568.7C2171.9,1558.8 2173.6,1549.1 2176.6,1540.1C2179.6,1531.2 2183.8,1522.7 2189.3,1516.6C2192,1513.5 2195,1511.2 2197.8,1509.8C2200.6,1508.4 2203,1508.2 2204.6,1508.6C2206.2,1509 2207.9,1510.1 2209.6,1512.6C2210,1513.3 2210.5,1513.8 2210.8,1514.6C2211.1,1515.4 2211.5,1516.2 2211.9,1517C2212.2,1517.9 2212.4,1518.9 2212.7,1519.8L2213.1,1521.2L2213.4,1522.7C2215,1530.9 2214.6,1540.6 2213.1,1550.3C2211.5,1560 2209,1569.8 2205.6,1579.4L2204.4,1583L2200.2,1593.5L2197,1600.2L2195.3,1603.5L2193.4,1606.6C2191.7,1609.6 2189.9,1612.5 2187.9,1615.3C2187.1,1615.9 2186.4,1616.5 2185.6,1617C2184.5,1617.9 2182.2,1620 2180.8,1620.5C2177.2,1621.5 2175.4,1618.8 2173.9,1616.2C2172.4,1610.6 2171.4,1604.7 2170.9,1598.6C2170.4,1588.9 2170.1,1578.6 2171,1568.7Z" style="fill:rgb(130,46,129);fill-rule:nonzero;"/>
        <circle cx="2308.9" cy="1370.6" r="20.3" style="fill:rgb(130,46,129);"/>
        <path d="M2289.1,1977.2C2287.9,1974.6 2285.9,1972.4 2283.1,1971.1C2283,1971 2282.8,1971 2282.7,1970.9C2280.1,1969.7 2277.2,1969.6 2274.6,1970.3L2092.6,2016.2C2089.5,2017 2086.8,2018.9 2085.1,2021.7L2034.8,2101.6L2004.4,2127C2001.9,2129.1 2000.3,2132.1 2000,2135.4C1999.7,2138.7 2000.7,2142 2002.8,2144.5L2069.2,2224C2071.3,2226.5 2074.4,2228.1 2077.6,2228.4L2078.7,2228.4C2081.6,2228.4 2084.4,2227.4 2086.7,2225.5L2117.1,2200.1L2204.7,2164.9C2207.7,2163.7 2210.1,2161.4 2211.4,2158.5L2289,1987.7C2289.2,1987.4 2289.3,1987.1 2289.4,1986.8C2290.2,1984.7 2290.4,1982.5 2290.1,1980.4C2289.9,1979.3 2289.6,1978.2 2289.1,1977.2ZM2238.2,2039.3L2195.8,2132.7C2192.6,2139.7 2186.9,2145.2 2179.7,2148.1L2126.2,2169.6C2119.2,2172.4 2111.1,2170.4 2106.3,2164.6L2067.8,2118.5C2063,2112.7 2062.4,2104.4 2066.4,2098L2097.1,2049.2C2101.2,2042.7 2107.6,2038 2115.1,2036.1L2214.6,2011C2217.8,2010.2 2219.9,2014.3 2217.3,2016.4L2171.1,2055C2164.2,2060.7 2156,2064.2 2147.3,2066.4C2144.7,2067.1 2142.2,2068.2 2139.9,2070C2130.6,2077 2129,2090.9 2136.3,2099.9C2143.7,2109 2157,2110.3 2166,2102.8C2168.6,2100.6 2170.6,2097.9 2171.9,2094.9C2175.7,2086 2182.1,2078.3 2189.6,2072.1L2233.4,2035.6C2235.9,2033.5 2239.6,2036.3 2238.2,2039.3Z" style="fill:rgb(130,46,129);fill-rule:nonzero;"/>
        <path d="M2234,2450.7C2231,2449.3 2228,2448.6 2224.9,2448.1C2221.9,2447.6 2218.9,2447.5 2215.8,2447.6C2212.8,2447.7 2209.8,2447.9 2206.7,2448.3C2203.7,2448.8 2200.7,2449.4 2197.6,2450.6C2195.1,2451.6 2193.1,2453.6 2192,2456.2C2189.9,2461.3 2192.4,2467.2 2197.6,2469.3C2200.6,2470.5 2203.6,2471.1 2206.7,2471.7C2209.7,2472.2 2212.7,2472.4 2215.8,2472.4C2218.8,2472.4 2221.8,2472.3 2224.9,2471.8C2228,2471.3 2230.9,2470.6 2234,2469.2C2236.2,2468.2 2238,2466.5 2239,2464.2C2241.5,2459.2 2239.2,2453.1 2234,2450.7Z" style="fill:rgb(130,46,129);fill-rule:nonzero;"/>
        <path d="M2157.5,1909.2C2155.2,1909 2152.9,1908.9 2150.5,1908.8C2150.4,1906.5 2150.3,1904.2 2150.1,1901.9C2149.6,1895.5 2149,1889.2 2147.7,1882.8C2147,1879.1 2144.1,1876.1 2140.2,1875.3C2135,1874.3 2130,1877.6 2129,1882.8C2127.8,1889.2 2127.1,1895.5 2126.6,1901.9C2126.4,1904.2 2126.3,1906.6 2126.2,1908.9C2123.9,1909 2121.5,1909.1 2119.2,1909.3C2112.8,1909.7 2106.5,1910.4 2100.1,1911.7C2096.4,1912.4 2093.4,1915.3 2092.6,1919.2C2091.6,1924.3 2095,1929.4 2100.1,1930.4C2106.5,1931.6 2112.8,1932.3 2119.2,1932.8C2121.5,1933 2123.8,1933 2126.1,1933.2C2126.2,1935.5 2126.3,1937.8 2126.5,1940.2C2127,1946.6 2127.7,1952.9 2129,1959.3C2129.8,1962.9 2132.6,1965.9 2136.4,1966.7C2141.5,1967.8 2146.6,1964.5 2147.7,1959.3C2149,1952.9 2149.7,1946.6 2150.2,1940.2C2150.4,1937.9 2150.4,1935.6 2150.6,1933.3C2152.9,1933.2 2155.2,1933.1 2157.5,1932.9C2163.9,1932.5 2170.2,1931.8 2176.6,1930.4C2180.2,1929.7 2183.2,1926.8 2184,1923C2185.1,1917.8 2181.8,1912.8 2176.6,1911.7C2170.2,1910.4 2163.8,1909.7 2157.5,1909.2Z" style="fill:rgb(130,46,129);fill-rule:nonzero;"/>
        <path d="M2178.2,2488.9C2177.2,2486.7 2175.5,2484.9 2173.2,2483.9C2168,2481.5 2161.9,2483.8 2159.5,2488.9C2158.1,2491.9 2157.4,2494.9 2156.9,2498C2156.5,2501 2156.3,2504 2156.4,2507.1C2156.5,2510.1 2156.7,2513.1 2157.1,2516.2C2157.6,2519.2 2158.2,2522.2 2159.4,2525.3C2160.4,2527.8 2162.4,2529.9 2165,2530.9C2170.1,2533 2176,2530.5 2178.1,2525.3C2179.3,2522.3 2179.9,2519.3 2180.5,2516.2C2181,2513.2 2181.2,2510.2 2181.2,2507.1C2181.3,2504.1 2181.1,2501.1 2180.6,2498C2180.1,2494.9 2179.6,2492 2178.2,2488.9Z" style="fill:rgb(130,46,129);fill-rule:nonzero;"/>
        <path d="M2178.2,2394.8C2177.2,2392.7 2175.5,2390.8 2173.2,2389.8C2168,2387.4 2161.9,2389.7 2159.5,2394.8C2158.1,2397.8 2157.4,2400.8 2156.9,2403.9C2156.5,2407 2156.3,2410 2156.4,2413C2156.5,2416 2156.7,2419 2157.1,2422.1C2157.6,2425.1 2158.2,2428.1 2159.4,2431.2C2160.4,2433.6 2162.4,2435.7 2165,2436.8C2170.1,2438.9 2176,2436.4 2178.1,2431.2C2179.3,2428.2 2179.9,2425.2 2180.5,2422.1C2181,2419.1 2181.2,2416.1 2181.2,2413C2181.3,2410 2181.1,2407 2180.6,2403.9C2180.3,2400.9 2179.6,2397.8 2178.2,2394.8Z" style="fill:rgb(130,46,129);fill-rule:nonzero;"/>
        <path d="M2162.5,2698.4C2158.6,2697 2154.8,2696.3 2151,2695.8C2147.1,2695.3 2143.3,2695.2 2139.4,2695.2C2135.6,2695.3 2131.7,2695.5 2127.9,2695.9C2124.1,2696.4 2120.2,2697.1 2116.4,2698.3C2113.5,2699.2 2111,2701.5 2110,2704.7C2108.4,2709.8 2111.2,2715.4 2116.4,2717C2120.3,2718.2 2124.1,2718.8 2127.9,2719.3C2131.8,2719.8 2135.6,2720 2139.4,2720C2143.3,2720.1 2147.1,2719.9 2151,2719.5C2154.8,2719 2158.7,2718.3 2162.5,2716.9C2165.1,2715.9 2167.4,2713.8 2168.5,2710.9C2170.3,2706 2167.6,2700.3 2162.5,2698.4Z" style="fill:rgb(130,46,129);fill-rule:nonzero;"/>
        <path d="M2121.8,2472.5C2124.8,2472.5 2127.8,2472.4 2130.9,2471.9C2134,2471.4 2136.9,2470.7 2140,2469.3C2142.2,2468.3 2144,2466.6 2145,2464.3C2147.4,2459.1 2145.1,2453 2140,2450.6C2137,2449.2 2134,2448.5 2130.9,2448C2127.9,2447.5 2124.9,2447.4 2121.8,2447.5C2118.8,2447.6 2115.8,2447.8 2112.7,2448.2C2109.6,2448.7 2106.6,2449.3 2103.6,2450.5C2101.2,2451.5 2099.1,2453.5 2098,2456.1C2095.9,2461.2 2098.4,2467.1 2103.6,2469.2C2106.6,2470.4 2109.6,2471 2112.7,2471.6C2115.7,2472.2 2118.8,2472.4 2121.8,2472.5Z" style="fill:rgb(130,46,129);fill-rule:nonzero;"/>
        <path d="M2093.7,2739.7C2092.7,2737.1 2090.6,2734.8 2087.7,2733.7C2082.6,2731.8 2076.9,2734.5 2075,2739.7C2073.6,2743.6 2072.9,2747.4 2072.4,2751.2C2072,2755.1 2071.8,2758.9 2071.9,2762.8C2072,2766.6 2072.2,2770.5 2072.6,2774.3C2073.1,2778.1 2073.7,2782 2074.9,2785.8C2075.9,2788.7 2078.2,2791.2 2081.3,2792.2C2086.5,2793.8 2092,2791 2093.6,2785.8C2094.8,2781.9 2095.4,2778.1 2096,2774.3C2096.5,2770.4 2096.7,2766.6 2096.7,2762.8C2096.8,2758.9 2096.6,2755.1 2096.1,2751.2C2095.8,2747.4 2095.1,2743.6 2093.7,2739.7Z" style="fill:rgb(130,46,129);fill-rule:nonzero;"/>
        <path d="M2093.7,2629.7C2092.7,2627.1 2090.6,2624.8 2087.7,2623.7C2082.6,2621.8 2076.9,2624.5 2075,2629.7C2073.6,2633.6 2072.9,2637.4 2072.4,2641.3C2072,2645.1 2071.8,2649 2071.9,2652.8C2072,2656.6 2072.2,2660.5 2072.6,2664.3C2073.1,2668.1 2073.7,2672 2074.9,2675.8C2075.9,2678.7 2078.2,2681.2 2081.3,2682.2C2086.5,2683.8 2092,2681 2093.6,2675.8C2094.8,2672 2095.4,2668.1 2096,2664.3C2096.5,2660.4 2096.7,2656.6 2096.7,2652.8C2096.8,2648.9 2096.6,2645.1 2096.1,2641.3C2095.8,2637.4 2095.1,2633.5 2093.7,2629.7Z" style="fill:rgb(130,46,129);fill-rule:nonzero;"/>
        <path d="M2052.5,2698.4C2048.6,2697 2044.8,2696.3 2041,2695.8C2037.1,2695.3 2033.3,2695.2 2029.4,2695.2C2025.6,2695.3 2021.7,2695.5 2017.9,2695.9C2014.1,2696.4 2010.2,2697.1 2006.4,2698.3C2003.5,2699.2 2001,2701.5 2000,2704.7C1998.4,2709.8 2001.2,2715.4 2006.4,2717C2010.3,2718.2 2014.1,2718.8 2017.9,2719.3C2021.8,2719.8 2025.6,2720 2029.4,2720C2033.3,2720.1 2037.1,2719.9 2041,2719.5C2044.8,2719 2048.7,2718.3 2052.5,2716.9C2055.1,2715.9 2057.4,2713.8 2058.5,2710.9C2060.3,2706 2057.6,2700.3 2052.5,2698.4Z" style="fill:rgb(130,46,129);fill-rule:nonzero;"/>
        <path d="M1951.1,2526.9C1946.1,2525.5 1941.1,2524.8 1936.1,2524.3C1931.1,2523.9 1926.1,2523.7 1921.1,2523.8C1916.1,2523.9 1911.1,2524.1 1906.1,2524.6C1901.1,2525.1 1896.1,2525.7 1891.1,2526.9C1887.7,2527.7 1884.9,2530.4 1884,2534C1882.8,2539.1 1885.9,2544.3 1891.1,2545.6C1896.1,2546.8 1901.1,2547.4 1906.1,2547.9C1911.1,2548.4 1916.1,2548.6 1921.1,2548.7C1926.1,2548.8 1931.1,2548.5 1936.1,2548.1C1941.1,2547.6 1946.1,2546.9 1951.1,2545.5C1954.2,2544.6 1956.9,2542.2 1957.8,2538.8C1959.3,2533.7 1956.2,2528.3 1951.1,2526.9Z" style="fill:rgb(130,46,129);fill-rule:nonzero;"/>
        <path d="M1862.2,2450.7C1861.7,2445.7 1861.1,2440.7 1859.9,2435.7C1859.1,2432.3 1856.4,2429.5 1852.8,2428.6C1847.6,2427.4 1842.4,2430.5 1841.2,2435.7C1840,2440.7 1839.4,2445.7 1838.9,2450.7C1838.4,2455.7 1838.2,2460.7 1838.2,2465.7C1838.1,2470.7 1838.3,2475.7 1838.7,2480.7C1839.2,2485.7 1839.9,2490.7 1841.3,2495.7C1842.2,2498.8 1844.7,2501.5 1848,2502.4C1853.2,2503.8 1858.5,2500.8 1860,2495.7C1861.4,2490.7 1862.1,2485.7 1862.6,2480.7C1863,2475.7 1863.2,2470.7 1863.1,2465.7C1862.9,2460.7 1862.7,2455.7 1862.2,2450.7Z" style="fill:rgb(130,46,129);fill-rule:nonzero;"/>
        <path d="M1862.2,2591.8C1861.7,2586.8 1861.1,2581.8 1859.9,2576.8C1859.1,2573.4 1856.4,2570.6 1852.8,2569.7C1847.6,2568.5 1842.4,2571.6 1841.2,2576.8C1840,2581.8 1839.4,2586.8 1838.9,2591.8C1838.4,2596.8 1838.2,2601.8 1838.2,2606.8C1838.1,2611.8 1838.3,2616.8 1838.7,2621.8C1839.2,2626.8 1839.9,2631.8 1841.3,2636.8C1842.2,2639.9 1844.7,2642.6 1848,2643.6C1853.2,2645 1858.5,2642 1860,2636.8C1861.4,2631.8 1862.1,2626.8 1862.6,2621.8C1863,2616.8 1863.2,2611.8 1863.1,2606.8C1862.9,2601.8 1862.7,2596.8 1862.2,2591.8Z" style="fill:rgb(130,46,129);fill-rule:nonzero;"/>
        <path d="M1810,2526.9C1805,2525.5 1800,2524.8 1795,2524.3C1790,2523.9 1785,2523.7 1780,2523.8C1775,2523.9 1770,2524.1 1765,2524.6C1760,2525.1 1755,2525.7 1750,2526.9C1746.6,2527.7 1743.8,2530.4 1742.9,2534C1741.7,2539.1 1744.8,2544.3 1750,2545.6C1755,2546.8 1760,2547.4 1765,2547.9C1770,2548.4 1775,2548.6 1780,2548.7C1785,2548.8 1790,2548.5 1795,2548.1C1800,2547.6 1805,2546.9 1810,2545.5C1813.2,2544.6 1815.8,2542.2 1816.8,2538.8C1818.2,2533.7 1815.1,2528.3 1810,2526.9Z" style="fill:rgb(130,46,129);fill-rule:nonzero;"/>
        <path d="M1391.2,2320.3C1387.6,2319.8 1387.6,2314.6 1391.2,2314.1L1481.7,2301.1C1496.2,2299 1508.4,2289.8 1514.3,2276.4C1520.2,2263.1 1518.9,2248 1510.7,2236C1468.7,2173.9 1400,2162.7 1280,2176.9C1276.4,2177.3 1275.1,2172.3 1278.4,2170.9L1317.9,2154.2C1332.5,2148.3 1342.4,2135.4 1344.4,2119.8C1346.4,2104.1 1340,2089 1327.3,2079.4C1256.1,2026.2 1164.2,2067.2 962.8,2157L956.4,2159.9C880.3,2193.8 823.9,2206.5 782,2198.2C744.1,2190.7 718.3,2154.6 725,2116.6C725,2116.4 725.1,2116.2 725.1,2116C732.5,2075.1 769.1,2055.4 811.5,2032.7C869.6,2001.5 935.5,1966.1 929.9,1865.4C929,1848.7 920.5,1833.7 906.8,1824.3C893.1,1815 876.3,1812.5 860.5,1817.7L201.5,2033.1C161.9,2046 132.8,2080.8 127.3,2121.6C115.6,2207.1 135.7,2282.7 186.9,2346.2C213.8,2379.6 257.9,2394.3 299.3,2383.7L346.3,2371.6C423.2,2351.9 503.8,2354.2 579.5,2378.4L1425.3,2648.6C1429.7,2650 1434.1,2650.7 1438.5,2650.7C1447.3,2650.7 1455.9,2648 1463.3,2642.8C1474.9,2634.5 1481.3,2620.8 1481.6,2606.5C1482.6,2552.6 1462,2515.2 1424.7,2485.2C1422.3,2483.3 1423.8,2479.4 1426.9,2479.7L1531.7,2489.8C1533.1,2490 1534.5,2490 1535.9,2490C1549.2,2490 1561.7,2483.9 1570,2473.2C1579.1,2461.5 1581.5,2446.2 1576.5,2432.3C1552.1,2364.6 1495.2,2335.7 1391.2,2320.3ZM1490.1,2249.9C1493.4,2254.8 1494,2260.8 1491.5,2266.3C1489,2271.9 1484.2,2275.6 1478.2,2276.4L1306.6,2301C1283.4,2303.6 1260.2,2305.1 1236.8,2305.2C1217.6,2305.3 1196.5,2301.8 1176.5,2302.6C1160.9,2301.8 1144.7,2300.9 1128,2300.1C1086.3,2297.9 1040.7,2295.6 991.3,2292.7C984.7,2290.9 977.6,2290.5 970.5,2289.5C964.1,2287.5 957,2287 949.7,2285.2C944.2,2283.9 936,2281 935.9,2273.7C935.8,2266.8 943.6,2263.3 948.8,2261.4C953.3,2259.8 957.8,2258.7 962.2,2257.2C992.7,2251.6 1021.6,2246.1 1048.9,2241C1089.3,2233.4 1126.2,2226.5 1159.9,2220.5C1160,2220.5 1160.1,2220.5 1160.1,2220.4C1354.3,2185.9 1443.3,2180.7 1490.1,2249.9ZM891,2218.4C892.1,2217.1 893.3,2215.9 894.6,2214.8C895.3,2214.3 896.1,2213.7 896.9,2213.2C902.3,2210.1 907.7,2207.1 913.2,2204.1C930,2198.1 947.8,2191 966.7,2182.6L973.1,2179.8C1165.3,2094.1 1253,2055 1312.5,2099.4C1318,2103.5 1320.7,2109.9 1319.9,2116.6C1319,2123.3 1315,2128.5 1308.6,2131.1L1196.3,2178.6C1167.6,2188.2 1138.5,2196.9 1109.1,2204.6C1088.5,2208.4 1067,2212.5 1044.5,2216.7C1005.9,2224 964,2231.8 918.7,2240C914.9,2239.9 911,2240.3 907.3,2240.6C894.7,2240 877.9,2233.9 891,2218.4ZM1456.6,2607.9C1456.4,2613.7 1453.6,2618.9 1448.9,2622.2C1444.2,2625.5 1438.3,2626.4 1432.8,2624.7L1331.8,2592.5C1329.9,2591.6 1328,2590.8 1325.9,2590.2C1321.7,2589 1317.2,2587.4 1320.3,2582.1C1322.1,2579.1 1325.6,2577.2 1328.8,2575.7C1334.6,2574 1340.7,2573 1346.9,2572.4C1357.5,2571.6 1368.5,2572.3 1379.5,2574.1C1385,2575 1390.4,2576.2 1395.9,2577.6C1401.3,2579 1406.9,2580.7 1411.7,2582.5L1412.1,2582.7C1416.5,2584.3 1421.5,2582.4 1423.6,2578.1C1425.9,2573.5 1424.1,2567.9 1419.5,2565.5C1413.5,2562.4 1407.9,2560.3 1401.9,2558.1C1396,2555.9 1390,2554.2 1383.8,2552.7C1371.5,2549.7 1358.7,2548.1 1345.6,2548.4C1339,2548.6 1332.4,2549.3 1325.8,2550.6C1319.2,2552 1312.7,2554.2 1306.4,2557C1302,2559 1297.9,2561.4 1293.9,2564.1C1293.7,2564.2 1293.6,2564.3 1293.4,2564.4C1281.5,2571.4 1270.7,2570.8 1257.5,2568.6C1257.2,2568.5 1256.9,2568.5 1256.6,2568.5L1196.3,2549.2C1198,2546.4 1199.7,2543.5 1201.3,2540.6C1203.1,2537.2 1204.9,2533.7 1206.6,2530.2C1208.3,2526.6 1209.9,2523.2 1211.5,2519.3C1213.2,2515.1 1211.7,2510.1 1207.6,2507.7C1203.1,2505.1 1197.4,2506.6 1194.8,2511L1194.6,2511.4C1193,2514.1 1191,2517.3 1189.1,2520.2C1187.1,2523.1 1185.1,2526.1 1183,2528.9C1179.8,2533.3 1176.3,2537.5 1172.7,2541.6L998.7,2486C1000.5,2483.6 1002.3,2481.1 1004,2478.5C1006.4,2474.9 1008.6,2471.2 1010.6,2467.3C1012.7,2463.4 1014.4,2459.8 1016.2,2455.2C1017.9,2450.9 1016.3,2445.9 1012.1,2443.6C1007.6,2441 1001.9,2442.6 999.4,2447.1L999.1,2447.7C997.6,2450.4 995.4,2453.8 993.3,2456.7C991.1,2459.7 988.9,2462.6 986.4,2465.4C982.5,2470 978.2,2474.2 973.7,2478L943.8,2468.4C947.4,2464.1 950.7,2459.6 953.8,2455C956.9,2450.4 959.8,2445.6 962.5,2440.7C965.2,2435.7 967.6,2431 969.9,2425.3C971.7,2420.9 969.9,2415.8 965.7,2413.5C961.1,2411.1 955.5,2412.8 953,2417.3L952.8,2417.7C950.7,2421.6 948,2426 945.2,2430C942.4,2434.1 939.4,2438 936.2,2441.8C930.7,2448.5 924.6,2454.6 918.2,2460.1L587,2354.5C542.8,2340.4 497,2333.3 451.1,2333.3C413.9,2333.3 376.6,2338 340.1,2347.3L293.1,2359.4C261.2,2367.6 227.1,2356.2 206.3,2330.4C159.6,2272.4 141.3,2203.2 151.9,2124.8C156.2,2093.3 178.7,2066.6 209.2,2056.6L556,1943.3C557.2,1948.9 558.9,1954.1 560.8,1959.1C562.5,1963.3 564.3,1967.4 566.3,1971.3C568.4,1975.3 570.4,1978.9 573,1983C575.5,1986.9 580.6,1988.4 584.9,1986.4C589.6,1984.2 591.6,1978.6 589.4,1974L589.2,1973.6C587.7,1970.5 586.1,1966.7 584.9,1963.2C583.6,1959.6 582.5,1956 581.5,1952.4C580.6,1948.8 579.9,1945.2 579.5,1941.8C579.3,1939.8 579.3,1937.8 579.3,1935.9L605,1927.5C605.2,1928.8 605.5,1930 605.7,1931.3C607.1,1937.1 608.9,1942.7 610.9,1948.1C613,1953.5 615.3,1958.7 617.8,1963.7C620.4,1968.8 623,1973.6 626.2,1978.7C628.7,1982.7 633.9,1984.2 638.3,1982.1C642.9,1979.8 644.8,1974.2 642.5,1969.6L642.3,1969.3C640.2,1965.1 638.1,1960.2 636.3,1955.6C634.5,1950.9 632.9,1946.1 631.6,1941.3C630.3,1936.5 629.3,1931.8 628.6,1927.1C628.3,1924.7 628.1,1922.4 628.1,1920.1L684.3,1901.7C685.3,1901.9 686.4,1901.9 687.6,1901.3C699.7,1895 713.7,1894.7 725.6,1901.5C726.1,1901.8 726.5,1902 727,1902.3C731.6,1906.7 736.9,1910.3 742.5,1912.7C749.3,1915.7 756.2,1917.4 762.9,1918.3C769.7,1919.3 776.3,1919.5 782.8,1919.3C795.8,1918.9 808.2,1916.8 820.4,1914C826.4,1912.6 832.4,1910.9 838.3,1909.1C844.3,1907.2 849.9,1905.2 856,1902.8C860.5,1901 863,1895.9 861.4,1891.2C859.8,1886.3 854.6,1883.6 849.6,1885.2L849.3,1885.3C838.7,1888.7 827.2,1891.4 816,1893.5C804.7,1895.5 793.4,1896.7 782.5,1896.5C775.8,1896.4 769.2,1895.6 763.2,1894.1C761,1892.6 758.9,1890.9 757.5,1888.6C753.7,1882.4 758.4,1878.8 763.7,1876C764.2,1875.7 764.7,1875.5 765.2,1875.2L868.1,1841.6C876.4,1838.9 885.3,1840.2 892.5,1845.1C899.8,1850.1 904.3,1858.1 904.8,1867C909.5,1951.9 856.1,1980.6 799.6,2010.9C780.5,2021.2 761,2031.6 744.4,2044.5C730.6,2052.4 717,2061.3 704.5,2071.9C691.8,2082.5 680.1,2094.9 670.8,2109.4L667.4,2114.9C666.4,2116.8 665.4,2118.7 664.4,2120.7L661.5,2126.5L659.2,2132.6C658.5,2134.6 657.7,2136.7 657,2138.7L655.4,2145C654.9,2147.1 654.3,2149.2 653.9,2151.3L653,2157.8C650.7,2175 652.7,2192.2 656.9,2208.2C658.1,2212.9 662.8,2216 667.7,2215.1C672.8,2214.1 676.1,2209.3 675.2,2204.2L675.1,2203.9C672.4,2189.6 671.9,2175.1 674.4,2161.4C676,2153.9 677.9,2144.8 684.9,2140.3C690.5,2136.7 696.9,2140.2 698.9,2146.2C699.1,2148.3 699.4,2150.4 699.7,2152.5C699.8,2153.4 699.9,2154.2 700,2155.1C700.1,2155.8 700.3,2156.4 700.5,2157.1C714.8,2226 797.2,2269.5 915.2,2313.1C915.6,2313.2 916,2313.4 916.4,2313.5C954.1,2327.4 995.3,2341.3 1039.1,2356.1C1080.1,2369.9 1122.5,2384.2 1167.1,2400.2C1180.5,2405 1193.6,2409.6 1206.3,2414.1C1265.3,2434.9 1315.6,2452.7 1355.2,2472.2C1355.5,2472.4 1355.8,2472.5 1356.1,2472.7C1422.2,2504.6 1458.5,2542.3 1456.6,2607.9ZM1550.3,2457.8C1546.4,2462.8 1540.5,2465.4 1534.1,2464.8L1431.9,2455C1420.6,2451.4 1409.3,2451.3 1397.4,2450C1381.3,2448.2 1365.8,2443.3 1350.6,2437.8C1332.9,2431.3 1315.4,2424.4 1297.3,2419.8C1271.8,2410.1 1244.2,2400.3 1214.7,2389.9C1202,2385.4 1189,2380.8 1175.6,2376.1C1155.1,2368.8 1135,2361.8 1115.4,2355.1C1113.2,2354.1 1111,2353 1108.9,2351.7C1098.5,2345.2 1095.3,2332.3 1109.6,2327.9C1114.8,2326.2 1120.2,2325.4 1125.6,2325.1C1125.9,2325.1 1126.3,2325.1 1126.7,2325.2C1173.1,2327.6 1214.8,2329.7 1252.4,2332.1C1254,2332.8 1255.7,2333.2 1257.5,2333.2C1258.1,2333.2 1258.7,2333.2 1259.3,2333.1L1262,2332.7C1442.7,2344.5 1524.6,2362.6 1552.9,2440.7C1555.2,2446.5 1554.2,2452.8 1550.3,2457.8Z" style="fill:rgb(130,46,129);fill-rule:nonzero;"/>
        <path d="M1190,473.1C1195,474.5 1200,475.2 1205,475.7C1210,476.1 1215,476.3 1220,476.2C1225,476.1 1230,475.9 1235,475.4C1240,474.9 1245,474.3 1250,473.1C1253.4,472.3 1256.2,469.6 1257.1,466C1258.3,460.9 1255.2,455.7 1250,454.4C1245,453.2 1240,452.6 1235,452.1C1230,451.6 1225,451.4 1220,451.3C1215,451.2 1210,451.5 1205,451.9C1200,452.4 1195,453.1 1190,454.5C1186.8,455.4 1184.2,457.8 1183.2,461.2C1181.8,466.3 1184.9,471.7 1190,473.1Z" style="fill:rgb(130,46,129);fill-rule:nonzero;"/>
        <path d="M1137.8,408.2C1138.3,413.2 1138.9,418.2 1140.1,423.2C1140.9,426.6 1143.6,429.4 1147.2,430.3C1152.4,431.5 1157.6,428.4 1158.8,423.2C1160,418.2 1160.6,413.2 1161.1,408.2C1161.6,403.2 1161.8,398.2 1161.8,393.2C1161.9,388.2 1161.7,383.2 1161.3,378.2C1160.8,373.2 1160.1,368.2 1158.7,363.2C1157.8,360.1 1155.3,357.4 1152,356.4C1146.8,355 1141.5,358 1140,363.2C1138.6,368.2 1137.9,373.2 1137.4,378.2C1137,383.2 1136.8,388.2 1136.9,393.2C1137.1,398.2 1137.3,403.2 1137.8,408.2Z" style="fill:rgb(130,46,129);fill-rule:nonzero;"/>
        <path d="M1137.8,549.3C1138.3,554.3 1138.9,559.3 1140.1,564.3C1140.9,567.7 1143.6,570.5 1147.2,571.4C1152.4,572.6 1157.6,569.5 1158.8,564.3C1160,559.3 1160.6,554.3 1161.1,549.3C1161.6,544.3 1161.8,539.3 1161.8,534.3C1161.9,529.3 1161.7,524.3 1161.3,519.3C1160.8,514.3 1160.1,509.3 1158.7,504.3C1157.8,501.2 1155.3,498.5 1152,497.6C1146.8,496.2 1141.5,499.2 1140,504.3C1138.6,509.3 1137.9,514.3 1137.4,519.3C1137,524.3 1136.8,529.3 1136.9,534.3C1137.1,539.3 1137.3,544.3 1137.8,549.3Z" style="fill:rgb(130,46,129);fill-rule:nonzero;"/>
        <path d="M1048.9,473.1C1053.9,474.5 1058.9,475.2 1063.9,475.7C1068.9,476.1 1073.9,476.3 1078.9,476.2C1083.9,476.1 1088.9,475.9 1093.9,475.4C1098.9,474.9 1103.9,474.3 1108.9,473.1C1112.3,472.3 1115.1,469.6 1116,466C1117.2,460.9 1114.1,455.7 1108.9,454.4C1103.9,453.2 1098.9,452.6 1093.9,452.1C1088.9,451.6 1083.9,451.4 1078.9,451.3C1073.9,451.2 1068.9,451.5 1063.9,451.9C1058.9,452.4 1053.9,453.1 1048.9,454.5C1045.8,455.4 1043.1,457.8 1042.2,461.2C1040.7,466.3 1043.8,471.7 1048.9,473.1Z" style="fill:rgb(130,46,129);fill-rule:nonzero;"/>
        <path d="M947.5,301.6C951.4,303 955.2,303.7 959,304.2C962.9,304.7 966.7,304.8 970.6,304.8C974.4,304.7 978.3,304.5 982.1,304.1C985.9,303.6 989.8,302.9 993.6,301.7C996.5,300.8 999,298.5 1000,295.3C1001.6,290.2 998.8,284.6 993.6,283C989.7,281.8 985.9,281.2 982.1,280.7C978.2,280.2 974.4,280 970.6,280C966.7,279.9 962.9,280.1 959,280.5C955.2,281 951.3,281.7 947.5,283.1C944.9,284.1 942.6,286.2 941.5,289.1C939.7,294 942.4,299.7 947.5,301.6Z" style="fill:rgb(130,46,129);fill-rule:nonzero;"/>
        <path d="M951,1476.6L773.5,1353.5C767,1349 758.6,1348.5 751.5,1352.1C744.5,1355.7 740,1362.9 740,1370.8L737.5,1586.8C737.4,1594.4 741.2,1601.3 747.6,1605.3C754.1,1609.3 761.9,1609.6 768.6,1606.1L801.1,1589.3C805.7,1586.9 811.3,1588.7 813.7,1593.3L836.8,1638C839.2,1642.7 843.1,1646.6 847.9,1648.6C850.6,1649.7 853.4,1650.3 856.1,1650.3C859.5,1650.3 862.8,1649.5 865.9,1647.9L926.2,1616.7C936.7,1611.3 940.8,1598.4 935.4,1587.9L912,1542.5C909.6,1537.9 911.4,1532.3 916,1529.9L947.7,1513.5C954.4,1510 959.3,1503.5 960,1496C960.8,1488.3 957.4,1481 951,1476.6ZM918.1,1500.9L893.2,1513.8C887.5,1516.7 883.5,1521.9 882.1,1528.2C881,1533.3 882,1538.6 884.4,1543.3L907.4,1587.9C909.8,1592.5 908,1598.2 903.4,1600.5L866,1619.8C861.4,1622.2 855.8,1620.4 853.4,1615.8L830,1570.4C826.2,1563 818.7,1558.8 811,1558.8C807.7,1558.8 804.4,1559.5 801.2,1561.2L776.3,1574.1C770,1577.3 762.6,1572.7 762.6,1565.7L764.6,1395.5C764.7,1388 773.1,1383.7 779.3,1387.9L919.2,1484.8C924.9,1488.9 924.3,1497.6 918.1,1500.9Z" style="fill:rgb(130,46,129);fill-rule:nonzero;"/>
        <path d="M906.3,370.3C907.3,372.9 909.4,375.2 912.3,376.3C917.4,378.2 923.1,375.5 925,370.3C926.4,366.4 927.1,362.6 927.6,358.7C928,354.9 928.2,351 928.1,347.2C928,343.4 927.8,339.5 927.4,335.7C926.9,331.9 926.3,328 925.1,324.2C924.1,321.3 921.8,318.8 918.7,317.8C913.5,316.2 908,319 906.4,324.2C905.2,328 904.6,331.9 904,335.7C903.5,339.6 903.3,343.4 903.3,347.2C903.2,351.1 903.4,354.9 903.9,358.7C904.2,362.6 904.9,366.5 906.3,370.3Z" style="fill:rgb(130,46,129);fill-rule:nonzero;"/>
        <path d="M906.3,260.3C907.3,262.9 909.4,265.2 912.3,266.3C917.4,268.2 923.1,265.5 925,260.3C926.4,256.4 927.1,252.6 927.6,248.8C928,244.9 928.2,241.1 928.1,237.2C928,233.4 927.8,229.5 927.4,225.7C926.9,221.9 926.3,218 925.1,214.2C924.1,211.3 921.8,208.8 918.7,207.8C913.5,206.2 908,209 906.4,214.2C905.2,218.1 904.6,221.9 904,225.7C903.5,229.6 903.3,233.4 903.3,237.2C903.2,241.1 903.4,244.9 903.9,248.8C904.2,252.6 904.9,256.4 906.3,260.3Z" style="fill:rgb(130,46,129);fill-rule:nonzero;"/>
        <path d="M716.8,1152.9C721.9,1152.9 726.2,1157 726.2,1162.2L726.2,1175.1C726.2,1182 731.8,1187.6 738.7,1187.6L775.3,1187.6C782.2,1187.6 787.8,1182 787.8,1175.1L787.8,1161.6C787.8,1156.5 791.9,1152.3 797.1,1152.2C802.8,1152.1 808.5,1152.1 814.2,1152C843,1151.7 871.8,1151.1 900.6,1148.7C905.4,1148.3 909.4,1144.2 909.2,1139.1C909.1,1134.2 905,1130.4 900.2,1130C871.5,1127.6 842.8,1127.1 814.2,1126.8C808.5,1126.7 802.8,1126.6 797.1,1126.6C792,1126.5 787.8,1122.4 787.8,1117.2L787.8,1103.7C787.8,1096.8 782.2,1091.2 775.3,1091.2L738.7,1091.2C731.8,1091.2 726.2,1096.8 726.2,1103.7L726.2,1116.6C726.2,1121.8 722,1126 716.8,1125.9C691.6,1125.9 666.4,1125.9 641.2,1126.1C612.4,1126.3 583.6,1126.2 554.8,1130C550.1,1130.7 546.3,1134.8 546.6,1140C546.9,1144.5 550.6,1148.2 555.1,1148.8C583.8,1152.6 612.5,1152.4 641.2,1152.6C666.4,1152.9 691.6,1152.9 716.8,1152.9Z" style="fill:rgb(130,46,129);fill-rule:nonzero;"/>
        <path d="M555.3,1030.9C575.5,1032.4 595.6,1033.2 615.8,1033.6C620.9,1033.7 625,1037.8 625,1043L625,1057.2C625,1064.1 630.6,1069.7 637.5,1069.7L674,1069.7C680.9,1069.7 686.5,1064.1 686.5,1057.2L686.5,1043.9C686.5,1038.7 690.7,1034.5 695.9,1034.5L727.8,1034.6C756.6,1034.6 785.4,1034.4 814.2,1034.1C843,1033.8 871.8,1033.3 900.6,1030.9C905.4,1030.5 909.4,1026.4 909.2,1021.2C909.1,1016.4 905,1012.5 900.2,1012.1C871.5,1009.7 842.8,1009.2 814.2,1008.9C785.4,1008.6 756.6,1008.4 727.8,1008.4L695.9,1008.5C690.7,1008.5 686.5,1004.4 686.5,999.1L686.5,985.8C686.5,978.9 680.9,973.3 674,973.3L637.4,973.3C630.5,973.3 624.9,978.9 624.9,985.8L624.9,1000C624.9,1005.1 620.8,1009.2 615.7,1009.4C595.4,1009.8 575.1,1010.6 554.8,1012.1C549.9,1012.5 546,1016.6 546.1,1021.8C546.3,1026.7 550.4,1030.5 555.3,1030.9Z" style="fill:rgb(130,46,129);fill-rule:nonzero;"/>
        <path d="M878.2,527.5C875.2,527.5 872.2,527.6 869.1,528.1C866.1,528.6 863.1,529.3 860,530.7C857.8,531.7 856,533.4 855,535.7C852.6,540.9 854.9,547 860,549.4C863,550.8 866,551.5 869.1,552C872.1,552.5 875.1,552.6 878.2,552.5C881.2,552.4 884.2,552.2 887.3,551.8C890.4,551.3 893.4,550.7 896.4,549.5C898.8,548.5 900.9,546.5 902,543.9C904.1,538.8 901.6,532.9 896.4,530.8C893.4,529.6 890.4,529 887.3,528.4C884.3,527.8 881.2,527.6 878.2,527.5Z" style="fill:rgb(130,46,129);fill-rule:nonzero;"/>
        <path d="M837.5,301.6C841.4,303 845.2,303.7 849,304.2C852.9,304.7 856.7,304.8 860.6,304.8C864.4,304.7 868.3,304.5 872.1,304.1C875.9,303.6 879.8,302.9 883.6,301.7C886.5,300.8 889,298.5 890,295.3C891.6,290.2 888.8,284.6 883.6,283C879.7,281.8 875.9,281.2 872.1,280.7C868.2,280.2 864.4,280 860.6,280C856.7,279.9 852.9,280.1 849,280.5C845.2,281 841.3,281.7 837.5,283.1C834.9,284.1 832.6,286.2 831.5,289.1C829.7,294 832.4,299.7 837.5,301.6Z" style="fill:rgb(130,46,129);fill-rule:nonzero;"/>
        <path d="M821.8,605.2C822.8,607.3 824.5,609.2 826.8,610.2C832,612.6 838.1,610.3 840.5,605.2C841.9,602.2 842.6,599.2 843.1,596.1C843.5,593 843.7,590 843.6,587C843.5,584 843.3,581 842.9,577.9C842.4,574.9 841.8,571.9 840.6,568.8C839.6,566.4 837.6,564.3 835,563.2C829.9,561.1 824,563.6 821.9,568.8C820.7,571.8 820.1,574.8 819.5,577.9C819,580.9 818.8,583.9 818.8,587C818.7,590 818.9,593 819.4,596.1C819.7,599.1 820.4,602.2 821.8,605.2Z" style="fill:rgb(130,46,129);fill-rule:nonzero;"/>
        <path d="M821.8,511.1C822.8,513.3 824.5,515.1 826.8,516.1C832,518.5 838.1,516.2 840.5,511.1C841.9,508.1 842.6,505.1 843.1,502C843.5,499 843.7,496 843.6,492.9C843.5,489.9 843.3,486.9 842.9,483.8C842.4,480.8 841.8,477.8 840.6,474.7C839.6,472.2 837.6,470.1 835,469.1C829.9,467 824,469.5 821.9,474.7C820.7,477.7 820.1,480.7 819.5,483.8C819,486.8 818.8,489.8 818.8,492.9C818.7,495.9 818.9,498.9 819.4,502C819.7,505 820.4,508 821.8,511.1Z" style="fill:rgb(130,46,129);fill-rule:nonzero;"/>
        <path d="M766,549.3C769,550.7 772,551.4 775.1,551.9C778.1,552.4 781.1,552.5 784.2,552.4C787.2,552.3 790.2,552.1 793.3,551.7C796.3,551.2 799.3,550.6 802.4,549.4C804.9,548.4 806.9,546.4 808,543.8C810.1,538.7 807.6,532.8 802.4,530.7C799.4,529.5 796.4,528.9 793.3,528.3C790.3,527.8 787.3,527.6 784.2,527.6C781.2,527.6 778.2,527.7 775.1,528.2C772.1,528.7 769.1,529.4 766,530.8C763.8,531.8 762,533.5 761,535.8C758.5,540.8 760.8,546.9 766,549.3Z" style="fill:rgb(130,46,129);fill-rule:nonzero;"/>
        <path d="M796.9,1288.2C792.6,1284.5 786.1,1285 782.4,1289.3C780.4,1291.6 779,1294.1 777.8,1296.6C776.6,1299.1 775.6,1301.7 774.8,1304.4C774,1307 773.4,1309.8 773.1,1312.6C772.8,1315.4 772.7,1318.2 773.2,1321.3C773.6,1323.5 774.7,1325.7 776.5,1327.3C780.8,1331.1 787.3,1330.8 791.2,1326.5C793.3,1324.2 794.7,1321.7 795.9,1319.2C797.1,1316.7 798.1,1314.1 798.8,1311.4C799.5,1308.7 800.1,1306 800.4,1303.2C800.7,1300.4 800.8,1297.6 800.4,1294.5C800,1292.1 798.8,1289.8 796.9,1288.2Z" style="fill:rgb(130,46,129);fill-rule:nonzero;"/>
        <path d="M740,1336.6C745.4,1335.9 749.2,1331 748.5,1325.7C747.9,1321.3 746.8,1317.2 745.4,1313.1C744.1,1309 742.5,1305.1 740.7,1301.3C738.9,1297.5 736.9,1293.7 734.7,1290C732.5,1286.4 730.1,1282.8 727.3,1279.5C725.2,1277.1 721.9,1275.8 718.6,1276.3C713.3,1277 709.6,1282 710.3,1287.3C710.9,1291.7 712.1,1295.8 713.4,1299.8C714.7,1303.8 716.3,1307.8 718,1311.6C719.7,1315.5 721.7,1319.2 723.9,1322.9C726.1,1326.5 728.5,1330.1 731.4,1333.4C733.6,1335.8 736.7,1337.1 740,1336.6Z" style="fill:rgb(130,46,129);fill-rule:nonzero;"/>
        <path d="M714.8,1351.1C712.2,1348.9 709.5,1347.5 706.7,1346.1C703.9,1344.8 701,1343.8 698,1343C695.1,1342.2 692,1341.5 689,1341.1C685.9,1340.7 682.8,1340.5 679.5,1340.9C676.9,1341.2 674.5,1342.5 672.7,1344.6C669.2,1349 669.9,1355.4 674.3,1358.8C676.9,1360.9 679.7,1362.3 682.5,1363.7C685.3,1365 688.2,1366 691.1,1366.9C694,1367.8 697,1368.5 700.1,1368.9C703.2,1369.3 706.3,1369.5 709.6,1369.1C712.1,1368.8 714.4,1367.6 716.1,1365.5C719.7,1361.1 719.1,1354.7 714.8,1351.1Z" style="fill:rgb(130,46,129);fill-rule:nonzero;"/>
        <circle cx="690.3" cy="794.1" r="20.3" style="fill:rgb(130,46,129);"/>
        <path d="M631.6,2242.9L629.3,2237.5C628.5,2235.6 627.7,2233.7 627,2231.8C625.5,2227.9 624.2,2224 622.9,2220.1C620.4,2212.3 618.7,2204.3 617.7,2196.3C617,2192.3 617.1,2188.3 616.7,2184.3C616.9,2180.3 616.6,2176.3 617.1,2172.3C617.5,2164.2 619.4,2156.3 621.2,2148.1L621.4,2147.2C622.2,2143.2 620.4,2138.9 616.6,2137C612,2134.6 606.3,2136.4 603.9,2141C599.3,2149.8 595.6,2159.2 594,2169.2C592.8,2174.1 592.7,2179.2 592.3,2184.3C592.3,2189.3 592.3,2194.4 593,2199.4C594.1,2209.4 596.6,2219.2 600.5,2228.4L603.6,2235.2C604.8,2237.4 605.9,2239.6 607.2,2241.7C608.5,2243.8 609.8,2245.9 611.3,2247.9C612.8,2250 614.3,2251.8 616.3,2254C618.9,2256.9 623.2,2258 626.9,2256.4C631.7,2254.4 633.9,2248.9 631.9,2244.1L631.6,2242.9Z" style="fill:rgb(130,46,129);fill-rule:nonzero;"/>
        <circle cx="609.1" cy="794.1" r="20.3" style="fill:rgb(130,46,129);"/>
        <circle cx="527.7" cy="794.1" r="20.3" style="fill:rgb(130,46,129);"/>
        <path d="M270.8,2282.6C262.9,2270.8 255,2259.3 249.3,2246.5L247,2241.8C246.2,2240.2 245.7,2238.6 245,2236.9L241.1,2227.2C239,2220.6 236.7,2214 235.1,2207.1C231.6,2193.6 229.4,2179.6 228.4,2165.5L227.8,2154.9C227.8,2151.4 227.6,2147.8 227.7,2144.3C227.7,2140.8 227.8,2137.2 228,2133.7C228.2,2130.2 228.4,2126.5 228.7,2123.4L228.8,2122.7C229.2,2118.3 226.3,2114 221.9,2112.9C216.9,2111.6 211.8,2114.6 210.5,2119.5C209.4,2123.7 208.6,2127.4 207.9,2131.3C207.2,2135.2 206.7,2139.1 206.2,2143C205.7,2146.9 205.6,2150.8 205.3,2154.7C205.1,2158.6 205.1,2162.5 205.1,2166.4C205.2,2182.1 207.3,2197.8 211.1,2213.1C212.8,2220.8 215.6,2228.2 218.1,2235.8C219.6,2239.5 221.3,2243.1 222.9,2246.7C223.7,2248.5 224.5,2250.3 225.4,2252.1L228.3,2257.3C235.6,2271.4 245.9,2283.7 256.9,2294.9C260,2298 265,2298.6 268.8,2296.1C273.1,2293.2 274.2,2287.4 271.4,2283.1L270.8,2282.6Z" style="fill:rgb(130,46,129);fill-rule:nonzero;"/>
    </g>
</svg>
